<svg width="737" height="518" viewBox="0 0 737 518" fill="none" xmlns="http://www.w3.org/2000/svg">
<g clip-path="url(#clip0_205_2395)">
<rect x="-18" y="286" width="68.6907" height="248" fill="#4573A7"/>
<rect x="424.285" y="286" width="68.6907" height="248" fill="#4573A7"/>
<rect x="253.959" y="198" width="32.2426" height="336" fill="#4573A7"/>
<rect x="344.379" y="229" width="32.2426" height="305" fill="#4573A7"/>
<rect x="620.543" y="229" width="32.2426" height="305" fill="#4573A7"/>
<rect x="50.6914" y="207" width="68.6907" height="327" fill="#4573A7"/>
<rect x="377.219" y="253" width="47" height="264" fill="#71A0D5"/>
<rect x="652.785" y="187" width="47.663" height="347" fill="#4573A7"/>
<rect x="700.219" y="214" width="39" height="303" fill="#71A0D5"/>
<rect x="167.746" y="117" width="68.6907" height="417" fill="#4573A7"/>
<rect x="492.975" y="117" width="68.6907" height="417" fill="#4573A7"/>
<rect x="286.219" y="205" width="42" height="312" fill="#71A0D5"/>
<rect x="579.219" y="205" width="42" height="312" fill="#71A0D5"/>
<rect x="119.381" y="242" width="17.5231" height="292" fill="#4573A7"/>
<rect x="327.557" y="286" width="17.5231" height="248" fill="#4573A7"/>
<rect x="236.219" y="226" width="18" height="291" fill="#71A0D5"/>
<rect x="562.219" y="232" width="17" height="285" fill="#71A0D5"/>
<rect x="136.904" y="229" width="30.8407" height="305" fill="#4573A7"/>
<path d="M177 518H96V162H104V153H124V162H177V518Z" fill="#B0D6FF"/>
<rect x="99" y="370" width="8" height="14" fill="#4F87C3"/>
<rect x="110" y="370" width="8" height="14" fill="#4F87C3"/>
<rect x="121" y="370" width="8" height="14" fill="#4F87C3"/>
<rect x="132" y="370" width="8" height="14" fill="#4F87C3"/>
<rect x="143" y="370" width="8" height="14" fill="#4F87C3"/>
<rect x="154" y="370" width="8" height="14" fill="#4F87C3"/>
<rect x="165" y="370" width="8" height="14" fill="#4F87C3"/>
<rect x="99" y="353" width="8" height="14" fill="#4F87C3"/>
<rect x="110" y="353" width="8" height="14" fill="#4F87C3"/>
<rect x="121" y="353" width="8" height="14" fill="#4F87C3"/>
<rect x="132" y="353" width="8" height="14" fill="#4F87C3"/>
<rect x="143" y="353" width="8" height="14" fill="#4F87C3"/>
<rect x="154" y="353" width="8" height="14" fill="#4F87C3"/>
<rect x="165" y="353" width="8" height="14" fill="#4F87C3"/>
<rect x="99" y="336" width="8" height="14" fill="#4F87C3"/>
<rect x="110" y="336" width="8" height="14" fill="#4F87C3"/>
<rect x="121" y="336" width="8" height="14" fill="#4F87C3"/>
<rect x="132" y="336" width="8" height="14" fill="#4F87C3"/>
<rect x="143" y="336" width="8" height="14" fill="#4F87C3"/>
<rect x="154" y="336" width="8" height="14" fill="#4F87C3"/>
<rect x="165" y="336" width="8" height="14" fill="#4F87C3"/>
<rect x="99" y="319" width="8" height="14" fill="#4F87C3"/>
<rect x="110" y="319" width="8" height="14" fill="#4F87C3"/>
<rect x="121" y="319" width="8" height="14" fill="#4F87C3"/>
<rect x="132" y="319" width="8" height="14" fill="#4F87C3"/>
<rect x="143" y="319" width="8" height="14" fill="#4F87C3"/>
<rect x="154" y="319" width="8" height="14" fill="#4F87C3"/>
<rect x="165" y="319" width="8" height="14" fill="#4F87C3"/>
<rect x="99" y="302" width="8" height="14" fill="#4F87C3"/>
<rect x="110" y="302" width="8" height="14" fill="#4F87C3"/>
<rect x="121" y="302" width="8" height="14" fill="#4F87C3"/>
<rect x="132" y="302" width="8" height="14" fill="#4F87C3"/>
<rect x="143" y="302" width="8" height="14" fill="#4F87C3"/>
<rect x="154" y="302" width="8" height="14" fill="#4F87C3"/>
<rect x="165" y="302" width="8" height="14" fill="#4F87C3"/>
<rect x="99" y="285" width="8" height="14" fill="#4F87C3"/>
<rect x="110" y="285" width="8" height="14" fill="#4F87C3"/>
<rect x="121" y="285" width="8" height="14" fill="#4F87C3"/>
<rect x="132" y="285" width="8" height="14" fill="#4F87C3"/>
<rect x="143" y="285" width="8" height="14" fill="#4F87C3"/>
<rect x="154" y="285" width="8" height="14" fill="#4F87C3"/>
<rect x="165" y="285" width="8" height="14" fill="#4F87C3"/>
<rect x="99" y="268" width="8" height="14" fill="#4F87C3"/>
<rect x="110" y="268" width="8" height="14" fill="#4F87C3"/>
<rect x="121" y="268" width="8" height="14" fill="#4F87C3"/>
<rect x="132" y="268" width="8" height="14" fill="#4F87C3"/>
<rect x="143" y="268" width="8" height="14" fill="#4F87C3"/>
<rect x="154" y="268" width="8" height="14" fill="#4F87C3"/>
<rect x="165" y="268" width="8" height="14" fill="#4F87C3"/>
<rect x="99" y="251" width="8" height="14" fill="#4F87C3"/>
<rect x="110" y="251" width="8" height="14" fill="#4F87C3"/>
<rect x="121" y="251" width="8" height="14" fill="#4F87C3"/>
<rect x="132" y="251" width="8" height="14" fill="#4F87C3"/>
<rect x="143" y="251" width="8" height="14" fill="#4F87C3"/>
<rect x="154" y="251" width="8" height="14" fill="#4F87C3"/>
<rect x="165" y="251" width="8" height="14" fill="#4F87C3"/>
<rect x="99" y="234" width="8" height="14" fill="#4F87C3"/>
<rect x="110" y="234" width="8" height="14" fill="#4F87C3"/>
<rect x="121" y="234" width="8" height="14" fill="#4F87C3"/>
<rect x="132" y="234" width="8" height="14" fill="#4F87C3"/>
<rect x="143" y="234" width="8" height="14" fill="#4F87C3"/>
<rect x="154" y="234" width="8" height="14" fill="#4F87C3"/>
<rect x="165" y="234" width="8" height="14" fill="#4F87C3"/>
<rect x="99" y="217" width="8" height="14" fill="#4F87C3"/>
<rect x="110" y="217" width="8" height="14" fill="#4F87C3"/>
<rect x="121" y="217" width="8" height="14" fill="#4F87C3"/>
<rect x="132" y="217" width="8" height="14" fill="#4F87C3"/>
<rect x="143" y="217" width="8" height="14" fill="#4F87C3"/>
<rect x="154" y="217" width="8" height="14" fill="#4F87C3"/>
<rect x="165" y="217" width="8" height="14" fill="#4F87C3"/>
<rect x="99" y="200" width="8" height="14" fill="#4F87C3"/>
<rect x="110" y="200" width="8" height="14" fill="#4F87C3"/>
<rect x="121" y="200" width="8" height="14" fill="#4F87C3"/>
<rect x="132" y="200" width="8" height="14" fill="#4F87C3"/>
<rect x="143" y="200" width="8" height="14" fill="#4F87C3"/>
<rect x="154" y="200" width="8" height="14" fill="#4F87C3"/>
<rect x="165" y="200" width="8" height="14" fill="#4F87C3"/>
<rect x="99" y="183" width="8" height="14" fill="#4F87C3"/>
<rect x="110" y="183" width="8" height="14" fill="#4F87C3"/>
<rect x="121" y="183" width="8" height="14" fill="#4F87C3"/>
<rect x="132" y="183" width="8" height="14" fill="#4F87C3"/>
<rect x="143" y="183" width="8" height="14" fill="#4F87C3"/>
<rect x="154" y="183" width="8" height="14" fill="#4F87C3"/>
<rect x="165" y="183" width="8" height="14" fill="#4F87C3"/>
<rect x="99" y="166" width="8" height="14" fill="#4F87C3"/>
<rect x="110" y="166" width="8" height="14" fill="#4F87C3"/>
<rect x="121" y="166" width="8" height="14" fill="#4F87C3"/>
<rect x="132" y="166" width="8" height="14" fill="#4F87C3"/>
<rect x="143" y="166" width="8" height="14" fill="#4F87C3"/>
<rect x="154" y="166" width="8" height="14" fill="#4F87C3"/>
<rect x="165" y="166" width="8" height="14" fill="#4F87C3"/>
<rect x="99" y="472" width="8" height="14" fill="#4F87C3"/>
<rect x="110" y="472" width="8" height="14" fill="#4F87C3"/>
<rect x="121" y="472" width="8" height="14" fill="#4F87C3"/>
<rect x="132" y="472" width="8" height="14" fill="#4F87C3"/>
<rect x="143" y="472" width="8" height="14" fill="#4F87C3"/>
<rect x="154" y="472" width="8" height="14" fill="#4F87C3"/>
<rect x="165" y="472" width="8" height="14" fill="#4F87C3"/>
<rect x="99" y="455" width="8" height="14" fill="#4F87C3"/>
<rect x="110" y="455" width="8" height="14" fill="#4F87C3"/>
<rect x="121" y="455" width="8" height="14" fill="#4F87C3"/>
<rect x="132" y="455" width="8" height="14" fill="#4F87C3"/>
<rect x="143" y="455" width="8" height="14" fill="#4F87C3"/>
<rect x="154" y="455" width="8" height="14" fill="#4F87C3"/>
<rect x="165" y="455" width="8" height="14" fill="#4F87C3"/>
<rect x="99" y="438" width="8" height="14" fill="#4F87C3"/>
<rect x="110" y="438" width="8" height="14" fill="#4F87C3"/>
<rect x="121" y="438" width="8" height="14" fill="#4F87C3"/>
<rect x="132" y="438" width="8" height="14" fill="#4F87C3"/>
<rect x="143" y="438" width="8" height="14" fill="#4F87C3"/>
<rect x="154" y="438" width="8" height="14" fill="#4F87C3"/>
<rect x="165" y="438" width="8" height="14" fill="#4F87C3"/>
<rect x="99" y="421" width="8" height="14" fill="#4F87C3"/>
<rect x="110" y="421" width="8" height="14" fill="#4F87C3"/>
<rect x="121" y="421" width="8" height="14" fill="#4F87C3"/>
<rect x="132" y="421" width="8" height="14" fill="#4F87C3"/>
<rect x="143" y="421" width="8" height="14" fill="#4F87C3"/>
<rect x="154" y="421" width="8" height="14" fill="#4F87C3"/>
<rect x="165" y="421" width="8" height="14" fill="#4F87C3"/>
<rect x="99" y="404" width="8" height="14" fill="#4F87C3"/>
<rect x="110" y="404" width="8" height="14" fill="#4F87C3"/>
<rect x="121" y="404" width="8" height="14" fill="#4F87C3"/>
<rect x="132" y="404" width="8" height="14" fill="#4F87C3"/>
<rect x="143" y="404" width="8" height="14" fill="#4F87C3"/>
<rect x="154" y="404" width="8" height="14" fill="#4F87C3"/>
<rect x="165" y="404" width="8" height="14" fill="#4F87C3"/>
<rect x="99" y="387" width="8" height="14" fill="#4F87C3"/>
<rect x="110" y="387" width="8" height="14" fill="#4F87C3"/>
<rect x="121" y="387" width="8" height="14" fill="#4F87C3"/>
<rect x="132" y="387" width="8" height="14" fill="#4F87C3"/>
<rect x="143" y="387" width="8" height="14" fill="#4F87C3"/>
<rect x="154" y="387" width="8" height="14" fill="#4F87C3"/>
<rect x="165" y="387" width="8" height="14" fill="#4F87C3"/>
<rect x="99" y="489" width="8" height="14" fill="#4F87C3"/>
<rect x="110" y="489" width="8" height="14" fill="#4F87C3"/>
<rect x="121" y="489" width="8" height="14" fill="#4F87C3"/>
<rect x="132" y="489" width="8" height="14" fill="#4F87C3"/>
<rect x="143" y="489" width="8" height="14" fill="#4F87C3"/>
<rect x="154" y="489" width="8" height="14" fill="#4F87C3"/>
<rect x="165" y="489" width="8" height="14" fill="#4F87C3"/>
<rect x="99" y="506" width="8" height="12" fill="#4F87C3"/>
<rect x="110" y="506" width="8" height="12" fill="#4F87C3"/>
<rect x="121" y="506" width="8" height="12" fill="#4F87C3"/>
<rect x="132" y="506" width="8" height="12" fill="#4F87C3"/>
<rect x="143" y="506" width="8" height="12" fill="#4F87C3"/>
<rect x="154" y="506" width="8" height="12" fill="#4F87C3"/>
<rect x="165" y="506" width="8" height="12" fill="#4F87C3"/>
<path d="M177 518H96L177 163V518Z" fill="#5994D1" fill-opacity="0.5"/>
<path d="M695 521H614V165H622V156H642V165H695V521Z" fill="#B0D6FF"/>
<rect x="617" y="373" width="8" height="14" fill="#4F87C3"/>
<rect x="628" y="373" width="8" height="14" fill="#4F87C3"/>
<rect x="639" y="373" width="8" height="14" fill="#4F87C3"/>
<rect x="650" y="373" width="8" height="14" fill="#4F87C3"/>
<rect x="661" y="373" width="8" height="14" fill="#4F87C3"/>
<rect x="672" y="373" width="8" height="14" fill="#4F87C3"/>
<rect x="683" y="373" width="8" height="14" fill="#4F87C3"/>
<rect x="617" y="356" width="8" height="14" fill="#4F87C3"/>
<rect x="628" y="356" width="8" height="14" fill="#4F87C3"/>
<rect x="639" y="356" width="8" height="14" fill="#4F87C3"/>
<rect x="650" y="356" width="8" height="14" fill="#4F87C3"/>
<rect x="661" y="356" width="8" height="14" fill="#4F87C3"/>
<rect x="672" y="356" width="8" height="14" fill="#4F87C3"/>
<rect x="683" y="356" width="8" height="14" fill="#4F87C3"/>
<rect x="617" y="339" width="8" height="14" fill="#4F87C3"/>
<rect x="628" y="339" width="8" height="14" fill="#4F87C3"/>
<rect x="639" y="339" width="8" height="14" fill="#4F87C3"/>
<rect x="650" y="339" width="8" height="14" fill="#4F87C3"/>
<rect x="661" y="339" width="8" height="14" fill="#4F87C3"/>
<rect x="672" y="339" width="8" height="14" fill="#4F87C3"/>
<rect x="683" y="339" width="8" height="14" fill="#4F87C3"/>
<rect x="617" y="322" width="8" height="14" fill="#4F87C3"/>
<rect x="628" y="322" width="8" height="14" fill="#4F87C3"/>
<rect x="639" y="322" width="8" height="14" fill="#4F87C3"/>
<rect x="650" y="322" width="8" height="14" fill="#4F87C3"/>
<rect x="661" y="322" width="8" height="14" fill="#4F87C3"/>
<rect x="672" y="322" width="8" height="14" fill="#4F87C3"/>
<rect x="683" y="322" width="8" height="14" fill="#4F87C3"/>
<rect x="617" y="305" width="8" height="14" fill="#4F87C3"/>
<rect x="628" y="305" width="8" height="14" fill="#4F87C3"/>
<rect x="639" y="305" width="8" height="14" fill="#4F87C3"/>
<rect x="650" y="305" width="8" height="14" fill="#4F87C3"/>
<rect x="661" y="305" width="8" height="14" fill="#4F87C3"/>
<rect x="672" y="305" width="8" height="14" fill="#4F87C3"/>
<rect x="683" y="305" width="8" height="14" fill="#4F87C3"/>
<rect x="617" y="288" width="8" height="14" fill="#4F87C3"/>
<rect x="628" y="288" width="8" height="14" fill="#4F87C3"/>
<rect x="639" y="288" width="8" height="14" fill="#4F87C3"/>
<rect x="650" y="288" width="8" height="14" fill="#4F87C3"/>
<rect x="661" y="288" width="8" height="14" fill="#4F87C3"/>
<rect x="672" y="288" width="8" height="14" fill="#4F87C3"/>
<rect x="683" y="288" width="8" height="14" fill="#4F87C3"/>
<rect x="617" y="271" width="8" height="14" fill="#4F87C3"/>
<rect x="628" y="271" width="8" height="14" fill="#4F87C3"/>
<rect x="639" y="271" width="8" height="14" fill="#4F87C3"/>
<rect x="650" y="271" width="8" height="14" fill="#4F87C3"/>
<rect x="661" y="271" width="8" height="14" fill="#4F87C3"/>
<rect x="672" y="271" width="8" height="14" fill="#4F87C3"/>
<rect x="683" y="271" width="8" height="14" fill="#4F87C3"/>
<rect x="617" y="254" width="8" height="14" fill="#4F87C3"/>
<rect x="628" y="254" width="8" height="14" fill="#4F87C3"/>
<rect x="639" y="254" width="8" height="14" fill="#4F87C3"/>
<rect x="650" y="254" width="8" height="14" fill="#4F87C3"/>
<rect x="661" y="254" width="8" height="14" fill="#4F87C3"/>
<rect x="672" y="254" width="8" height="14" fill="#4F87C3"/>
<rect x="683" y="254" width="8" height="14" fill="#4F87C3"/>
<rect x="617" y="237" width="8" height="14" fill="#4F87C3"/>
<rect x="628" y="237" width="8" height="14" fill="#4F87C3"/>
<rect x="639" y="237" width="8" height="14" fill="#4F87C3"/>
<rect x="650" y="237" width="8" height="14" fill="#4F87C3"/>
<rect x="661" y="237" width="8" height="14" fill="#4F87C3"/>
<rect x="672" y="237" width="8" height="14" fill="#4F87C3"/>
<rect x="683" y="237" width="8" height="14" fill="#4F87C3"/>
<rect x="617" y="220" width="8" height="14" fill="#4F87C3"/>
<rect x="628" y="220" width="8" height="14" fill="#4F87C3"/>
<rect x="639" y="220" width="8" height="14" fill="#4F87C3"/>
<rect x="650" y="220" width="8" height="14" fill="#4F87C3"/>
<rect x="661" y="220" width="8" height="14" fill="#4F87C3"/>
<rect x="672" y="220" width="8" height="14" fill="#4F87C3"/>
<rect x="683" y="220" width="8" height="14" fill="#4F87C3"/>
<rect x="617" y="203" width="8" height="14" fill="#4F87C3"/>
<rect x="628" y="203" width="8" height="14" fill="#4F87C3"/>
<rect x="639" y="203" width="8" height="14" fill="#4F87C3"/>
<rect x="650" y="203" width="8" height="14" fill="#4F87C3"/>
<rect x="661" y="203" width="8" height="14" fill="#4F87C3"/>
<rect x="672" y="203" width="8" height="14" fill="#4F87C3"/>
<rect x="683" y="203" width="8" height="14" fill="#4F87C3"/>
<rect x="617" y="186" width="8" height="14" fill="#4F87C3"/>
<rect x="628" y="186" width="8" height="14" fill="#4F87C3"/>
<rect x="639" y="186" width="8" height="14" fill="#4F87C3"/>
<rect x="650" y="186" width="8" height="14" fill="#4F87C3"/>
<rect x="661" y="186" width="8" height="14" fill="#4F87C3"/>
<rect x="672" y="186" width="8" height="14" fill="#4F87C3"/>
<rect x="683" y="186" width="8" height="14" fill="#4F87C3"/>
<rect x="617" y="169" width="8" height="14" fill="#4F87C3"/>
<rect x="628" y="169" width="8" height="14" fill="#4F87C3"/>
<rect x="639" y="169" width="8" height="14" fill="#4F87C3"/>
<rect x="650" y="169" width="8" height="14" fill="#4F87C3"/>
<rect x="661" y="169" width="8" height="14" fill="#4F87C3"/>
<rect x="672" y="169" width="8" height="14" fill="#4F87C3"/>
<rect x="683" y="169" width="8" height="14" fill="#4F87C3"/>
<rect x="617" y="475" width="8" height="14" fill="#4F87C3"/>
<rect x="628" y="475" width="8" height="14" fill="#4F87C3"/>
<rect x="639" y="475" width="8" height="14" fill="#4F87C3"/>
<rect x="650" y="475" width="8" height="14" fill="#4F87C3"/>
<rect x="661" y="475" width="8" height="14" fill="#4F87C3"/>
<rect x="672" y="475" width="8" height="14" fill="#4F87C3"/>
<rect x="683" y="475" width="8" height="14" fill="#4F87C3"/>
<rect x="617" y="458" width="8" height="14" fill="#4F87C3"/>
<rect x="628" y="458" width="8" height="14" fill="#4F87C3"/>
<rect x="639" y="458" width="8" height="14" fill="#4F87C3"/>
<rect x="650" y="458" width="8" height="14" fill="#4F87C3"/>
<rect x="661" y="458" width="8" height="14" fill="#4F87C3"/>
<rect x="672" y="458" width="8" height="14" fill="#4F87C3"/>
<rect x="683" y="458" width="8" height="14" fill="#4F87C3"/>
<rect x="617" y="441" width="8" height="14" fill="#4F87C3"/>
<rect x="628" y="441" width="8" height="14" fill="#4F87C3"/>
<rect x="639" y="441" width="8" height="14" fill="#4F87C3"/>
<rect x="650" y="441" width="8" height="14" fill="#4F87C3"/>
<rect x="661" y="441" width="8" height="14" fill="#4F87C3"/>
<rect x="672" y="441" width="8" height="14" fill="#4F87C3"/>
<rect x="683" y="441" width="8" height="14" fill="#4F87C3"/>
<rect x="617" y="424" width="8" height="14" fill="#4F87C3"/>
<rect x="628" y="424" width="8" height="14" fill="#4F87C3"/>
<rect x="639" y="424" width="8" height="14" fill="#4F87C3"/>
<rect x="650" y="424" width="8" height="14" fill="#4F87C3"/>
<rect x="661" y="424" width="8" height="14" fill="#4F87C3"/>
<rect x="672" y="424" width="8" height="14" fill="#4F87C3"/>
<rect x="683" y="424" width="8" height="14" fill="#4F87C3"/>
<rect x="617" y="407" width="8" height="14" fill="#4F87C3"/>
<rect x="628" y="407" width="8" height="14" fill="#4F87C3"/>
<rect x="639" y="407" width="8" height="14" fill="#4F87C3"/>
<rect x="650" y="407" width="8" height="14" fill="#4F87C3"/>
<rect x="661" y="407" width="8" height="14" fill="#4F87C3"/>
<rect x="672" y="407" width="8" height="14" fill="#4F87C3"/>
<rect x="683" y="407" width="8" height="14" fill="#4F87C3"/>
<rect x="617" y="390" width="8" height="14" fill="#4F87C3"/>
<rect x="628" y="390" width="8" height="14" fill="#4F87C3"/>
<rect x="639" y="390" width="8" height="14" fill="#4F87C3"/>
<rect x="650" y="390" width="8" height="14" fill="#4F87C3"/>
<rect x="661" y="390" width="8" height="14" fill="#4F87C3"/>
<rect x="672" y="390" width="8" height="14" fill="#4F87C3"/>
<rect x="683" y="390" width="8" height="14" fill="#4F87C3"/>
<rect x="617" y="492" width="8" height="14" fill="#4F87C3"/>
<rect x="628" y="492" width="8" height="14" fill="#4F87C3"/>
<rect x="639" y="492" width="8" height="14" fill="#4F87C3"/>
<rect x="650" y="492" width="8" height="14" fill="#4F87C3"/>
<rect x="661" y="492" width="8" height="14" fill="#4F87C3"/>
<rect x="672" y="492" width="8" height="14" fill="#4F87C3"/>
<rect x="683" y="492" width="8" height="14" fill="#4F87C3"/>
<rect x="617" y="509" width="8" height="12" fill="#4F87C3"/>
<rect x="628" y="509" width="8" height="12" fill="#4F87C3"/>
<rect x="639" y="509" width="8" height="12" fill="#4F87C3"/>
<rect x="650" y="509" width="8" height="12" fill="#4F87C3"/>
<rect x="661" y="509" width="8" height="12" fill="#4F87C3"/>
<rect x="672" y="509" width="8" height="12" fill="#4F87C3"/>
<rect x="683" y="509" width="8" height="12" fill="#4F87C3"/>
<path d="M695 521H614L695 166V521Z" fill="#5994D1" fill-opacity="0.5"/>
<rect x="158" y="294" width="94" height="224" fill="#B0D6FF"/>
<rect x="161" y="298" width="16" height="12" fill="#4F87C3"/>
<rect x="179" y="298" width="16" height="12" fill="#4F87C3"/>
<rect x="197" y="298" width="16" height="12" fill="#4F87C3"/>
<rect x="215" y="298" width="16" height="12" fill="#4F87C3"/>
<rect x="233" y="298" width="16" height="12" fill="#4F87C3"/>
<rect x="161" y="312" width="16" height="12" fill="#4F87C3"/>
<rect x="179" y="312" width="16" height="12" fill="#4F87C3"/>
<rect x="197" y="312" width="16" height="12" fill="#4F87C3"/>
<rect x="215" y="312" width="16" height="12" fill="#4F87C3"/>
<rect x="233" y="312" width="16" height="12" fill="#4F87C3"/>
<rect x="161" y="326" width="16" height="12" fill="#4F87C3"/>
<rect x="179" y="326" width="16" height="12" fill="#4F87C3"/>
<rect x="197" y="326" width="16" height="12" fill="#4F87C3"/>
<rect x="215" y="326" width="16" height="12" fill="#4F87C3"/>
<rect x="233" y="326" width="16" height="12" fill="#4F87C3"/>
<rect x="161" y="340" width="16" height="12" fill="#4F87C3"/>
<rect x="179" y="340" width="16" height="12" fill="#4F87C3"/>
<rect x="197" y="340" width="16" height="12" fill="#4F87C3"/>
<rect x="215" y="340" width="16" height="12" fill="#4F87C3"/>
<rect x="233" y="340" width="16" height="12" fill="#4F87C3"/>
<rect x="161" y="354" width="16" height="12" fill="#4F87C3"/>
<rect x="179" y="354" width="16" height="12" fill="#4F87C3"/>
<rect x="197" y="354" width="16" height="12" fill="#4F87C3"/>
<rect x="215" y="354" width="16" height="12" fill="#4F87C3"/>
<rect x="233" y="354" width="16" height="12" fill="#4F87C3"/>
<rect x="161" y="368" width="16" height="12" fill="#4F87C3"/>
<rect x="179" y="368" width="16" height="12" fill="#4F87C3"/>
<rect x="197" y="368" width="16" height="12" fill="#4F87C3"/>
<rect x="215" y="368" width="16" height="12" fill="#4F87C3"/>
<rect x="233" y="368" width="16" height="12" fill="#4F87C3"/>
<rect x="161" y="382" width="16" height="12" fill="#4F87C3"/>
<rect x="179" y="382" width="16" height="12" fill="#4F87C3"/>
<rect x="197" y="382" width="16" height="12" fill="#4F87C3"/>
<rect x="215" y="382" width="16" height="12" fill="#4F87C3"/>
<rect x="233" y="382" width="16" height="12" fill="#4F87C3"/>
<rect x="161" y="396" width="16" height="12" fill="#4F87C3"/>
<rect x="179" y="396" width="16" height="12" fill="#4F87C3"/>
<rect x="197" y="396" width="16" height="12" fill="#4F87C3"/>
<rect x="215" y="396" width="16" height="12" fill="#4F87C3"/>
<rect x="233" y="396" width="16" height="12" fill="#4F87C3"/>
<rect x="161" y="410" width="16" height="12" fill="#4F87C3"/>
<rect x="179" y="410" width="16" height="12" fill="#4F87C3"/>
<rect x="197" y="410" width="16" height="12" fill="#4F87C3"/>
<rect x="215" y="410" width="16" height="12" fill="#4F87C3"/>
<rect x="233" y="410" width="16" height="12" fill="#4F87C3"/>
<rect x="161" y="424" width="16" height="12" fill="#4F87C3"/>
<rect x="179" y="424" width="16" height="12" fill="#4F87C3"/>
<rect x="197" y="424" width="16" height="12" fill="#4F87C3"/>
<rect x="215" y="424" width="16" height="12" fill="#4F87C3"/>
<rect x="233" y="424" width="16" height="12" fill="#4F87C3"/>
<rect x="161" y="438" width="16" height="12" fill="#4F87C3"/>
<rect x="179" y="438" width="16" height="12" fill="#4F87C3"/>
<rect x="197" y="438" width="16" height="12" fill="#4F87C3"/>
<rect x="215" y="438" width="16" height="12" fill="#4F87C3"/>
<rect x="233" y="438" width="16" height="12" fill="#4F87C3"/>
<rect x="161" y="452" width="16" height="12" fill="#4F87C3"/>
<rect x="179" y="452" width="16" height="12" fill="#4F87C3"/>
<rect x="197" y="452" width="16" height="12" fill="#4F87C3"/>
<rect x="215" y="452" width="16" height="12" fill="#4F87C3"/>
<rect x="233" y="452" width="16" height="12" fill="#4F87C3"/>
<rect x="161" y="466" width="16" height="12" fill="#4F87C3"/>
<rect x="179" y="466" width="16" height="12" fill="#4F87C3"/>
<rect x="197" y="466" width="16" height="12" fill="#4F87C3"/>
<rect x="215" y="466" width="16" height="12" fill="#4F87C3"/>
<rect x="233" y="466" width="16" height="12" fill="#4F87C3"/>
<rect x="161" y="480" width="16" height="12" fill="#4F87C3"/>
<rect x="179" y="480" width="16" height="12" fill="#4F87C3"/>
<rect x="197" y="480" width="16" height="12" fill="#4F87C3"/>
<rect x="215" y="480" width="16" height="12" fill="#4F87C3"/>
<rect x="233" y="480" width="16" height="12" fill="#4F87C3"/>
<rect x="161" y="494" width="16" height="12" fill="#4F87C3"/>
<rect x="179" y="494" width="16" height="12" fill="#4F87C3"/>
<rect x="197" y="494" width="16" height="12" fill="#4F87C3"/>
<rect x="215" y="494" width="16" height="12" fill="#4F87C3"/>
<rect x="233" y="494" width="16" height="12" fill="#4F87C3"/>
<rect x="161" y="508" width="16" height="10" fill="#4F87C3"/>
<rect x="179" y="508" width="16" height="10" fill="#4F87C3"/>
<rect x="197" y="508" width="16" height="10" fill="#4F87C3"/>
<rect x="215" y="508" width="16" height="10" fill="#4F87C3"/>
<rect x="233" y="508" width="16" height="10" fill="#4F87C3"/>
<rect x="169" y="285" width="20" height="9" fill="#B0D6FF"/>
<path d="M158 444.5L252 294V518H158V444.5Z" fill="#698CB1" fill-opacity="0.5"/>
<rect x="682" y="297" width="94" height="224" fill="#B0D6FF"/>
<rect x="685" y="301" width="16" height="12" fill="#4F87C3"/>
<rect x="703" y="301" width="16" height="12" fill="#4F87C3"/>
<rect x="721" y="301" width="16" height="12" fill="#4F87C3"/>
<rect x="685" y="315" width="16" height="12" fill="#4F87C3"/>
<rect x="703" y="315" width="16" height="12" fill="#4F87C3"/>
<rect x="721" y="315" width="16" height="12" fill="#4F87C3"/>
<rect x="685" y="329" width="16" height="12" fill="#4F87C3"/>
<rect x="703" y="329" width="16" height="12" fill="#4F87C3"/>
<rect x="721" y="329" width="16" height="12" fill="#4F87C3"/>
<rect x="685" y="343" width="16" height="12" fill="#4F87C3"/>
<rect x="703" y="343" width="16" height="12" fill="#4F87C3"/>
<rect x="721" y="343" width="16" height="12" fill="#4F87C3"/>
<rect x="685" y="357" width="16" height="12" fill="#4F87C3"/>
<rect x="703" y="357" width="16" height="12" fill="#4F87C3"/>
<rect x="721" y="357" width="16" height="12" fill="#4F87C3"/>
<rect x="685" y="371" width="16" height="12" fill="#4F87C3"/>
<rect x="703" y="371" width="16" height="12" fill="#4F87C3"/>
<rect x="721" y="371" width="16" height="12" fill="#4F87C3"/>
<rect x="685" y="385" width="16" height="12" fill="#4F87C3"/>
<rect x="703" y="385" width="16" height="12" fill="#4F87C3"/>
<rect x="721" y="385" width="16" height="12" fill="#4F87C3"/>
<rect x="685" y="399" width="16" height="12" fill="#4F87C3"/>
<rect x="703" y="399" width="16" height="12" fill="#4F87C3"/>
<rect x="721" y="399" width="16" height="12" fill="#4F87C3"/>
<rect x="685" y="413" width="16" height="12" fill="#4F87C3"/>
<rect x="703" y="413" width="16" height="12" fill="#4F87C3"/>
<rect x="721" y="413" width="16" height="12" fill="#4F87C3"/>
<rect x="685" y="427" width="16" height="12" fill="#4F87C3"/>
<rect x="703" y="427" width="16" height="12" fill="#4F87C3"/>
<rect x="721" y="427" width="16" height="12" fill="#4F87C3"/>
<rect x="685" y="441" width="16" height="12" fill="#4F87C3"/>
<rect x="703" y="441" width="16" height="12" fill="#4F87C3"/>
<rect x="721" y="441" width="16" height="12" fill="#4F87C3"/>
<rect x="685" y="455" width="16" height="12" fill="#4F87C3"/>
<rect x="703" y="455" width="16" height="12" fill="#4F87C3"/>
<rect x="721" y="455" width="16" height="12" fill="#4F87C3"/>
<rect x="685" y="469" width="16" height="12" fill="#4F87C3"/>
<rect x="703" y="469" width="16" height="12" fill="#4F87C3"/>
<rect x="721" y="469" width="16" height="12" fill="#4F87C3"/>
<rect x="685" y="483" width="16" height="12" fill="#4F87C3"/>
<rect x="703" y="483" width="16" height="12" fill="#4F87C3"/>
<rect x="721" y="483" width="16" height="12" fill="#4F87C3"/>
<rect x="685" y="497" width="16" height="12" fill="#4F87C3"/>
<rect x="703" y="497" width="16" height="12" fill="#4F87C3"/>
<rect x="721" y="497" width="16" height="12" fill="#4F87C3"/>
<rect x="685" y="511" width="16" height="10" fill="#4F87C3"/>
<rect x="703" y="511" width="16" height="10" fill="#4F87C3"/>
<rect x="721" y="511" width="16" height="10" fill="#4F87C3"/>
<rect x="693" y="288" width="20" height="9" fill="#B0D6FF"/>
<path d="M682 447.5L776 297V521H682V447.5Z" fill="#698CB1" fill-opacity="0.5"/>
<rect x="15" y="461" width="74" height="5" fill="#B0D6FF"/>
<rect y="471" width="107" height="47" fill="#B0D6FF"/>
<rect x="15" y="451" width="74" height="5" fill="#B0D6FF"/>
<rect x="15" y="441" width="74" height="5" fill="#B0D6FF"/>
<rect x="15" y="431" width="74" height="5" fill="#B0D6FF"/>
<rect x="15" y="421" width="74" height="5" fill="#B0D6FF"/>
<rect x="15" y="411" width="74" height="5" fill="#B0D6FF"/>
<rect x="15" y="401" width="74" height="5" fill="#B0D6FF"/>
<rect x="15" y="391" width="74" height="5" fill="#B0D6FF"/>
<rect x="15" y="381" width="74" height="5" fill="#B0D6FF"/>
<rect x="15" y="371" width="74" height="5" fill="#B0D6FF"/>
<rect x="15" y="361" width="74" height="5" fill="#B0D6FF"/>
<rect x="15" y="351" width="74" height="5" fill="#B0D6FF"/>
<rect x="15" y="341" width="74" height="5" fill="#B0D6FF"/>
<rect x="15" y="331" width="74" height="5" fill="#B0D6FF"/>
<rect x="15" y="321" width="74" height="5" fill="#B0D6FF"/>
<rect x="15" y="311" width="74" height="5" fill="#B0D6FF"/>
<rect x="15" y="301" width="74" height="5" fill="#B0D6FF"/>
<rect x="15" y="291" width="74" height="5" fill="#B0D6FF"/>
<rect x="15" y="281" width="74" height="5" fill="#B0D6FF"/>
<rect x="15" y="271" width="74" height="5" fill="#B0D6FF"/>
<rect x="15" y="261" width="74" height="5" fill="#B0D6FF"/>
<rect x="15" y="246" width="74" height="10" fill="#B0D6FF"/>
<rect x="20" y="236" width="34" height="10" fill="#B0D6FF"/>
<rect x="89" y="489" width="14" height="29" fill="#4F87C3"/>
<rect x="89" y="476" width="14" height="10" fill="#4F87C3"/>
<rect x="72" y="476" width="14" height="10" fill="#4F87C3"/>
<rect x="55" y="476" width="14" height="10" fill="#4F87C3"/>
<rect x="38" y="476" width="14" height="10" fill="#4F87C3"/>
<rect x="21" y="476" width="14" height="10" fill="#4F87C3"/>
<rect x="4" y="476" width="14" height="10" fill="#4F87C3"/>
<rect x="72" y="489" width="14" height="29" fill="#4F87C3"/>
<rect x="55" y="489" width="14" height="29" fill="#4F87C3"/>
<rect x="38" y="489" width="14" height="29" fill="#4F87C3"/>
<rect x="21" y="489" width="14" height="29" fill="#4F87C3"/>
<rect x="4" y="489" width="14" height="29" fill="#4F87C3"/>
<rect x="15" y="466" width="74" height="5" fill="#4F87C3"/>
<rect x="15" y="456" width="74" height="5" fill="#4F87C3"/>
<rect x="15" y="446" width="74" height="5" fill="#4F87C3"/>
<rect x="15" y="436" width="74" height="5" fill="#4F87C3"/>
<rect x="15" y="426" width="74" height="5" fill="#4F87C3"/>
<rect x="15" y="416" width="74" height="5" fill="#4F87C3"/>
<rect x="15" y="406" width="74" height="5" fill="#4F87C3"/>
<rect x="15" y="396" width="74" height="5" fill="#4F87C3"/>
<rect x="15" y="386" width="74" height="5" fill="#4F87C3"/>
<rect x="15" y="376" width="74" height="5" fill="#4F87C3"/>
<rect x="15" y="366" width="74" height="5" fill="#4F87C3"/>
<rect x="15" y="356" width="74" height="5" fill="#4F87C3"/>
<rect x="15" y="346" width="74" height="5" fill="#4F87C3"/>
<rect x="15" y="336" width="74" height="5" fill="#4F87C3"/>
<rect x="15" y="326" width="74" height="5" fill="#4F87C3"/>
<rect x="15" y="316" width="74" height="5" fill="#4F87C3"/>
<rect x="15" y="306" width="74" height="5" fill="#4F87C3"/>
<rect x="15" y="296" width="74" height="5" fill="#4F87C3"/>
<rect x="15" y="286" width="74" height="5" fill="#4F87C3"/>
<rect x="15" y="276" width="74" height="5" fill="#4F87C3"/>
<rect x="15" y="266" width="74" height="5" fill="#4F87C3"/>
<rect x="15" y="256" width="74" height="5" fill="#4F87C3"/>
<rect x="65" y="246" width="24" height="225" fill="#5994D1" fill-opacity="0.5"/>
<rect x="522" y="478" width="74" height="5" fill="#B0D6FF"/>
<rect x="507" y="488" width="107" height="47" fill="#B0D6FF"/>
<rect x="522" y="468" width="74" height="5" fill="#B0D6FF"/>
<rect x="522" y="458" width="74" height="5" fill="#B0D6FF"/>
<rect x="522" y="448" width="74" height="5" fill="#B0D6FF"/>
<rect x="522" y="438" width="74" height="5" fill="#B0D6FF"/>
<rect x="522" y="428" width="74" height="5" fill="#B0D6FF"/>
<rect x="522" y="418" width="74" height="5" fill="#B0D6FF"/>
<rect x="522" y="408" width="74" height="5" fill="#B0D6FF"/>
<rect x="522" y="398" width="74" height="5" fill="#B0D6FF"/>
<rect x="522" y="388" width="74" height="5" fill="#B0D6FF"/>
<rect x="522" y="378" width="74" height="5" fill="#B0D6FF"/>
<rect x="522" y="368" width="74" height="5" fill="#B0D6FF"/>
<rect x="522" y="358" width="74" height="5" fill="#B0D6FF"/>
<rect x="522" y="348" width="74" height="5" fill="#B0D6FF"/>
<rect x="522" y="338" width="74" height="5" fill="#B0D6FF"/>
<rect x="522" y="328" width="74" height="5" fill="#B0D6FF"/>
<rect x="522" y="318" width="74" height="5" fill="#B0D6FF"/>
<rect x="522" y="308" width="74" height="5" fill="#B0D6FF"/>
<rect x="522" y="298" width="74" height="5" fill="#B0D6FF"/>
<rect x="522" y="288" width="74" height="5" fill="#B0D6FF"/>
<rect x="522" y="278" width="74" height="5" fill="#B0D6FF"/>
<rect x="522" y="263" width="74" height="10" fill="#B0D6FF"/>
<rect x="527" y="253" width="34" height="10" fill="#B0D6FF"/>
<rect x="596" y="506" width="14" height="29" fill="#4F87C3"/>
<rect x="596" y="493" width="14" height="10" fill="#4F87C3"/>
<rect x="579" y="493" width="14" height="10" fill="#4F87C3"/>
<rect x="562" y="493" width="14" height="10" fill="#4F87C3"/>
<rect x="545" y="493" width="14" height="10" fill="#4F87C3"/>
<rect x="528" y="493" width="14" height="10" fill="#4F87C3"/>
<rect x="511" y="493" width="14" height="10" fill="#4F87C3"/>
<rect x="579" y="506" width="14" height="29" fill="#4F87C3"/>
<rect x="562" y="506" width="14" height="29" fill="#4F87C3"/>
<rect x="545" y="506" width="14" height="29" fill="#4F87C3"/>
<rect x="528" y="506" width="14" height="29" fill="#4F87C3"/>
<rect x="511" y="506" width="14" height="29" fill="#4F87C3"/>
<rect x="522" y="483" width="74" height="5" fill="#4F87C3"/>
<rect x="522" y="473" width="74" height="5" fill="#4F87C3"/>
<rect x="522" y="463" width="74" height="5" fill="#4F87C3"/>
<rect x="522" y="453" width="74" height="5" fill="#4F87C3"/>
<rect x="522" y="443" width="74" height="5" fill="#4F87C3"/>
<rect x="522" y="433" width="74" height="5" fill="#4F87C3"/>
<rect x="522" y="423" width="74" height="5" fill="#4F87C3"/>
<rect x="522" y="413" width="74" height="5" fill="#4F87C3"/>
<rect x="522" y="403" width="74" height="5" fill="#4F87C3"/>
<rect x="522" y="393" width="74" height="5" fill="#4F87C3"/>
<rect x="522" y="383" width="74" height="5" fill="#4F87C3"/>
<rect x="522" y="373" width="74" height="5" fill="#4F87C3"/>
<rect x="522" y="363" width="74" height="5" fill="#4F87C3"/>
<rect x="522" y="353" width="74" height="5" fill="#4F87C3"/>
<rect x="522" y="343" width="74" height="5" fill="#4F87C3"/>
<rect x="522" y="333" width="74" height="5" fill="#4F87C3"/>
<rect x="522" y="323" width="74" height="5" fill="#4F87C3"/>
<rect x="522" y="313" width="74" height="5" fill="#4F87C3"/>
<rect x="522" y="303" width="74" height="5" fill="#4F87C3"/>
<rect x="522" y="293" width="74" height="5" fill="#4F87C3"/>
<rect x="522" y="283" width="74" height="5" fill="#4F87C3"/>
<rect x="522" y="273" width="74" height="5" fill="#4F87C3"/>
<rect x="572" y="263" width="24" height="225" fill="#5994D1" fill-opacity="0.5"/>
<rect x="383" y="474.713" width="74" height="4.06028" fill="#B0D6FF"/>
<rect x="368" y="482.833" width="107" height="38.1667" fill="#B0D6FF"/>
<rect x="383" y="466.592" width="74" height="4.06028" fill="#B0D6FF"/>
<rect x="383" y="458.472" width="74" height="4.06028" fill="#B0D6FF"/>
<rect x="383" y="450.351" width="74" height="4.06028" fill="#B0D6FF"/>
<rect x="383" y="442.23" width="74" height="4.06028" fill="#B0D6FF"/>
<rect x="383" y="434.11" width="74" height="4.06028" fill="#B0D6FF"/>
<rect x="383" y="425.989" width="74" height="4.06028" fill="#B0D6FF"/>
<rect x="383" y="417.869" width="74" height="4.06028" fill="#B0D6FF"/>
<rect x="383" y="409.748" width="74" height="4.06028" fill="#B0D6FF"/>
<rect x="383" y="401.627" width="74" height="4.06028" fill="#B0D6FF"/>
<rect x="383" y="393.507" width="74" height="4.06028" fill="#B0D6FF"/>
<rect x="383" y="385.387" width="74" height="4.06028" fill="#B0D6FF"/>
<rect x="383" y="377.266" width="74" height="4.06028" fill="#B0D6FF"/>
<rect x="383" y="369.146" width="74" height="4.06028" fill="#B0D6FF"/>
<rect x="383" y="361.025" width="74" height="4.06028" fill="#B0D6FF"/>
<rect x="383" y="352.904" width="74" height="4.06028" fill="#B0D6FF"/>
<rect x="383" y="344.784" width="74" height="4.06028" fill="#B0D6FF"/>
<rect x="383" y="336.663" width="74" height="4.06028" fill="#B0D6FF"/>
<rect x="383" y="328.542" width="74" height="4.06028" fill="#B0D6FF"/>
<rect x="383" y="320.422" width="74" height="4.06028" fill="#B0D6FF"/>
<rect x="383" y="312.301" width="74" height="4.06028" fill="#B0D6FF"/>
<rect x="383" y="300.121" width="74" height="8.12057" fill="#B0D6FF"/>
<rect x="388" y="292" width="34" height="8.12057" fill="#B0D6FF"/>
<rect x="457" y="497.45" width="14" height="23.5496" fill="#4F87C3"/>
<rect x="457" y="486.894" width="14" height="8.12057" fill="#4F87C3"/>
<rect x="440" y="486.894" width="14" height="8.12057" fill="#4F87C3"/>
<rect x="423" y="486.894" width="14" height="8.12057" fill="#4F87C3"/>
<rect x="406" y="486.894" width="14" height="8.12057" fill="#4F87C3"/>
<rect x="389" y="486.894" width="14" height="8.12057" fill="#4F87C3"/>
<rect x="372" y="486.894" width="14" height="8.12057" fill="#4F87C3"/>
<rect x="440" y="497.45" width="14" height="23.5496" fill="#4F87C3"/>
<rect x="423" y="497.45" width="14" height="23.5496" fill="#4F87C3"/>
<rect x="406" y="497.45" width="14" height="23.5496" fill="#4F87C3"/>
<rect x="389" y="497.45" width="14" height="23.5496" fill="#4F87C3"/>
<rect x="372" y="497.45" width="14" height="23.5496" fill="#4F87C3"/>
<rect x="383" y="478.773" width="74" height="4.06028" fill="#4F87C3"/>
<rect x="383" y="470.652" width="74" height="4.06028" fill="#4F87C3"/>
<rect x="383" y="462.532" width="74" height="4.06028" fill="#4F87C3"/>
<rect x="383" y="454.411" width="74" height="4.06028" fill="#4F87C3"/>
<rect x="383" y="446.291" width="74" height="4.06028" fill="#4F87C3"/>
<rect x="383" y="438.17" width="74" height="4.06028" fill="#4F87C3"/>
<rect x="383" y="430.05" width="74" height="4.06028" fill="#4F87C3"/>
<rect x="383" y="421.929" width="74" height="4.06028" fill="#4F87C3"/>
<rect x="383" y="413.809" width="74" height="4.06028" fill="#4F87C3"/>
<rect x="383" y="405.688" width="74" height="4.06028" fill="#4F87C3"/>
<rect x="383" y="397.567" width="74" height="4.06028" fill="#4F87C3"/>
<rect x="383" y="389.447" width="74" height="4.06028" fill="#4F87C3"/>
<rect x="383" y="381.326" width="74" height="4.06028" fill="#4F87C3"/>
<rect x="383" y="373.206" width="74" height="4.06028" fill="#4F87C3"/>
<rect x="383" y="365.085" width="74" height="4.06028" fill="#4F87C3"/>
<rect x="383" y="356.964" width="74" height="4.06028" fill="#4F87C3"/>
<rect x="383" y="348.844" width="74" height="4.06028" fill="#4F87C3"/>
<rect x="383" y="340.724" width="74" height="4.06028" fill="#4F87C3"/>
<rect x="383" y="332.603" width="74" height="4.06028" fill="#4F87C3"/>
<rect x="383" y="324.482" width="74" height="4.06028" fill="#4F87C3"/>
<rect x="383" y="316.362" width="74" height="4.06028" fill="#4F87C3"/>
<rect x="383" y="308.241" width="74" height="4.06028" fill="#4F87C3"/>
<rect x="433" y="300.121" width="24" height="182.713" fill="#5994D1" fill-opacity="0.5"/>
<rect x="265" y="221" width="106" height="300" fill="#4F87C3"/>
<rect x="270" y="421" width="22" height="97" fill="#B0D6FF"/>
<rect x="270" y="320" width="22" height="97" fill="#B0D6FF"/>
<rect x="270" y="224" width="22" height="92" fill="#B0D6FF"/>
<rect x="295" y="421" width="22" height="97" fill="#B0D6FF"/>
<rect x="295" y="320" width="22" height="97" fill="#B0D6FF"/>
<rect x="295" y="224" width="22" height="92" fill="#B0D6FF"/>
<rect x="320" y="421" width="22" height="97" fill="#B0D6FF"/>
<rect x="320" y="320" width="22" height="97" fill="#B0D6FF"/>
<rect x="320" y="224" width="22" height="92" fill="#B0D6FF"/>
<rect x="345" y="421" width="22" height="97" fill="#B0D6FF"/>
<rect x="345" y="320" width="22" height="97" fill="#B0D6FF"/>
<rect x="345" y="224" width="22" height="92" fill="#B0D6FF"/>
<path d="M266 417.5L371 223V521H266V417.5Z" fill="#698CB1" fill-opacity="0.5"/>
<rect x="192" y="473.5" width="74" height="5" fill="#B0D6FF"/>
<rect x="177" y="483.5" width="107" height="47" fill="#B0D6FF"/>
<rect x="192" y="463.5" width="74" height="5" fill="#B0D6FF"/>
<rect x="192" y="453.5" width="74" height="5" fill="#B0D6FF"/>
<rect x="192" y="443.5" width="74" height="5" fill="#B0D6FF"/>
<rect x="192" y="433.5" width="74" height="5" fill="#B0D6FF"/>
<rect x="192" y="423.5" width="74" height="5" fill="#B0D6FF"/>
<rect x="192" y="413.5" width="74" height="5" fill="#B0D6FF"/>
<rect x="192" y="403.5" width="74" height="5" fill="#B0D6FF"/>
<rect x="192" y="393.5" width="74" height="5" fill="#B0D6FF"/>
<rect x="192" y="383.5" width="74" height="5" fill="#B0D6FF"/>
<rect x="192" y="373.5" width="74" height="5" fill="#B0D6FF"/>
<rect x="192" y="363.5" width="74" height="5" fill="#B0D6FF"/>
<rect x="192" y="353.5" width="74" height="5" fill="#B0D6FF"/>
<rect x="192" y="343.5" width="74" height="5" fill="#B0D6FF"/>
<rect x="192" y="333.5" width="74" height="5" fill="#B0D6FF"/>
<rect x="192" y="323.5" width="74" height="5" fill="#B0D6FF"/>
<rect x="192" y="313.5" width="74" height="5" fill="#B0D6FF"/>
<rect x="192" y="303.5" width="74" height="5" fill="#B0D6FF"/>
<rect x="192" y="293.5" width="74" height="5" fill="#B0D6FF"/>
<rect x="192" y="283.5" width="74" height="5" fill="#B0D6FF"/>
<rect x="192" y="273.5" width="74" height="5" fill="#B0D6FF"/>
<rect x="192" y="258.5" width="74" height="10" fill="#B0D6FF"/>
<path d="M249 158L247.5 258.5H192.5L249 158Z" fill="#B0D6FF"/>
<rect x="266" y="501.5" width="14" height="29" fill="#4F87C3"/>
<rect x="266" y="488.5" width="14" height="10" fill="#4F87C3"/>
<rect x="249" y="488.5" width="14" height="10" fill="#4F87C3"/>
<rect x="232" y="488.5" width="14" height="10" fill="#4F87C3"/>
<rect x="215" y="488.5" width="14" height="10" fill="#4F87C3"/>
<rect x="198" y="488.5" width="14" height="10" fill="#4F87C3"/>
<rect x="181" y="488.5" width="14" height="10" fill="#4F87C3"/>
<rect x="249" y="501.5" width="14" height="29" fill="#4F87C3"/>
<rect x="232" y="501.5" width="14" height="29" fill="#4F87C3"/>
<rect x="215" y="501.5" width="14" height="29" fill="#4F87C3"/>
<rect x="198" y="501.5" width="14" height="29" fill="#4F87C3"/>
<rect x="181" y="501.5" width="14" height="29" fill="#4F87C3"/>
<rect x="192" y="478.5" width="74" height="5" fill="#4F87C3"/>
<rect x="192" y="468.5" width="74" height="5" fill="#4F87C3"/>
<rect x="192" y="458.5" width="74" height="5" fill="#4F87C3"/>
<rect x="192" y="448.5" width="74" height="5" fill="#4F87C3"/>
<rect x="192" y="438.5" width="74" height="5" fill="#4F87C3"/>
<rect x="192" y="428.5" width="74" height="5" fill="#4F87C3"/>
<rect x="192" y="418.5" width="74" height="5" fill="#4F87C3"/>
<rect x="192" y="408.5" width="74" height="5" fill="#4F87C3"/>
<rect x="192" y="398.5" width="74" height="5" fill="#4F87C3"/>
<rect x="192" y="388.5" width="74" height="5" fill="#4F87C3"/>
<rect x="192" y="378.5" width="74" height="5" fill="#4F87C3"/>
<rect x="192" y="368.5" width="74" height="5" fill="#4F87C3"/>
<rect x="192" y="358.5" width="74" height="5" fill="#4F87C3"/>
<rect x="192" y="348.5" width="74" height="5" fill="#4F87C3"/>
<rect x="192" y="338.5" width="74" height="5" fill="#4F87C3"/>
<rect x="192" y="328.5" width="74" height="5" fill="#4F87C3"/>
<rect x="192" y="318.5" width="74" height="5" fill="#4F87C3"/>
<rect x="192" y="308.5" width="74" height="5" fill="#4F87C3"/>
<rect x="192" y="298.5" width="74" height="5" fill="#4F87C3"/>
<rect x="192" y="288.5" width="74" height="5" fill="#4F87C3"/>
<rect x="192" y="278.5" width="74" height="5" fill="#4F87C3"/>
<rect x="192" y="268.5" width="74" height="5" fill="#4F87C3"/>
<rect x="242" y="258.5" width="24" height="225" fill="#5994D1" fill-opacity="0.5"/>
<rect x="439" y="154" width="85" height="71" fill="#B0D6FF"/>
<rect x="422" y="225" width="118" height="293" fill="#B0D6FF"/>
<rect x="468" y="225" width="4" height="293" fill="#4F87C3"/>
<rect x="461" y="235" width="2" height="283" fill="#4F87C3"/>
<rect x="454" y="235" width="2" height="283" fill="#4F87C3"/>
<rect x="447" y="235" width="2" height="283" fill="#4F87C3"/>
<rect x="500" y="235" width="2" height="283" fill="#4F87C3"/>
<rect x="507" y="235" width="2" height="283" fill="#4F87C3"/>
<rect x="514" y="235" width="2" height="283" fill="#4F87C3"/>
<rect x="521" y="235" width="2" height="283" fill="#4F87C3"/>
<rect x="528" y="235" width="7" height="283" fill="#4F87C3"/>
<rect x="440" y="235" width="2" height="283" fill="#4F87C3"/>
<rect x="428" y="235" width="7" height="283" fill="#4F87C3"/>
<rect x="443" y="158" width="7" height="77" fill="#4F87C3"/>
<rect x="513" y="158" width="7" height="77" fill="#4F87C3"/>
<rect x="491" y="225" width="4" height="293" fill="#4F87C3"/>
<rect x="456" y="109" width="51" height="49" fill="#B0D6FF"/>
<rect x="456" y="106" width="51" height="3" fill="#4F87C3"/>
<rect x="479" y="25" width="4" height="81" fill="#4F87C3"/>
<rect x="456" y="108" width="7" height="127" fill="#4F87C3"/>
<rect x="500" y="109" width="7" height="127" fill="#4F87C3"/>
<rect x="476" y="109" width="4" height="409" fill="#4F87C3"/>
<rect x="484" y="109" width="4" height="409" fill="#4F87C3"/>
<path d="M422 518H539.5V225.5H524V154H507L422 328V518Z" fill="#698CB1" fill-opacity="0.5"/>
<rect x="439" y="154" width="85" height="71" fill="#B0D6FF"/>
<rect x="422" y="225" width="118" height="293" fill="#B0D6FF"/>
<rect x="468" y="225" width="4" height="293" fill="#4F87C3"/>
<rect x="461" y="235" width="2" height="283" fill="#4F87C3"/>
<rect x="454" y="235" width="2" height="283" fill="#4F87C3"/>
<rect x="447" y="235" width="2" height="283" fill="#4F87C3"/>
<rect x="500" y="235" width="2" height="283" fill="#4F87C3"/>
<rect x="507" y="235" width="2" height="283" fill="#4F87C3"/>
<rect x="514" y="235" width="2" height="283" fill="#4F87C3"/>
<rect x="521" y="235" width="2" height="283" fill="#4F87C3"/>
<rect x="528" y="235" width="7" height="283" fill="#4F87C3"/>
<rect x="440" y="235" width="2" height="283" fill="#4F87C3"/>
<rect x="428" y="235" width="7" height="283" fill="#4F87C3"/>
<rect x="443" y="158" width="7" height="77" fill="#4F87C3"/>
<rect x="513" y="158" width="7" height="77" fill="#4F87C3"/>
<rect x="491" y="225" width="4" height="293" fill="#4F87C3"/>
<rect x="456" y="109" width="51" height="49" fill="#B0D6FF"/>
<rect x="456" y="106" width="51" height="3" fill="#4F87C3"/>
<rect x="479" y="25" width="4" height="81" fill="#4F87C3"/>
<rect x="456" y="108" width="7" height="127" fill="#4F87C3"/>
<rect x="500" y="109" width="7" height="127" fill="#4F87C3"/>
<rect x="476" y="109" width="4" height="409" fill="#4F87C3"/>
<rect x="484" y="109" width="4" height="409" fill="#4F87C3"/>
<path d="M422 518H539.5V225.5H524V154H507L422 328V518Z" fill="#698CB1" fill-opacity="0.5"/>
<rect width="106" height="300" transform="matrix(0 1 1 0 371 415)" fill="#4F87C3"/>
<rect width="22" height="97" transform="matrix(0 1 1 0 571 420)" fill="#B0D6FF"/>
<rect width="22" height="97" transform="matrix(0 1 1 0 470 420)" fill="#B0D6FF"/>
<rect width="22" height="92" transform="matrix(0 1 1 0 374 420)" fill="#B0D6FF"/>
<rect width="22" height="97" transform="matrix(0 1 1 0 571 445)" fill="#B0D6FF"/>
<rect width="22" height="97" transform="matrix(0 1 1 0 470 445)" fill="#B0D6FF"/>
<rect width="22" height="92" transform="matrix(0 1 1 0 374 445)" fill="#B0D6FF"/>
<rect width="22" height="97" transform="matrix(0 1 1 0 571 470)" fill="#B0D6FF"/>
<rect width="22" height="97" transform="matrix(0 1 1 0 470 470)" fill="#B0D6FF"/>
<rect width="22" height="92" transform="matrix(0 1 1 0 374 470)" fill="#B0D6FF"/>
<rect width="22" height="97" transform="matrix(0 1 1 0 571 495)" fill="#B0D6FF"/>
<rect width="22" height="97" transform="matrix(0 1 1 0 470 495)" fill="#B0D6FF"/>
<rect width="22" height="92" transform="matrix(0 1 1 0 374 495)" fill="#B0D6FF"/>
<path d="M567.5 416L373 521L671 521V416H567.5Z" fill="#698CB1" fill-opacity="0.5"/>
</g>
<defs>
<clipPath id="clip0_205_2395">
<rect width="737" height="518" fill="white"/>
</clipPath>
</defs>
</svg>
