<svg width="737" height="665" viewBox="0 0 737 665" fill="none" xmlns="http://www.w3.org/2000/svg">
<g clip-path="url(#clip0_205_2395)">
<path d="M236.437 311H253.959V345H286.202V284H327.557V433H344.379V376H376.621V345H424.284V433H492.975V264H561.666V318H579.188V284H620.544V376H652.786V334H700.449V296H739V681H-18V433H50.6904V354H119.382V389H136.904V376H167.745V264H236.437V311Z" fill="#4573A7"/>
<path d="M177 665H96V309H104V300H124V309H177V665Z" fill="#B0D6FF"/>
<rect x="99" y="517" width="8" height="14" fill="#4F87C3"/>
<rect x="110" y="517" width="8" height="14" fill="#4F87C3"/>
<rect x="121" y="517" width="8" height="14" fill="#4F87C3"/>
<rect x="132" y="517" width="8" height="14" fill="#4F87C3"/>
<rect x="143" y="517" width="8" height="14" fill="#4F87C3"/>
<rect x="154" y="517" width="8" height="14" fill="#4F87C3"/>
<rect x="165" y="517" width="8" height="14" fill="#4F87C3"/>
<rect x="99" y="500" width="8" height="14" fill="#4F87C3"/>
<rect x="110" y="500" width="8" height="14" fill="#4F87C3"/>
<rect x="121" y="500" width="8" height="14" fill="#4F87C3"/>
<rect x="132" y="500" width="8" height="14" fill="#4F87C3"/>
<rect x="143" y="500" width="8" height="14" fill="#4F87C3"/>
<rect x="154" y="500" width="8" height="14" fill="#4F87C3"/>
<rect x="165" y="500" width="8" height="14" fill="#4F87C3"/>
<rect x="99" y="483" width="8" height="14" fill="#4F87C3"/>
<rect x="110" y="483" width="8" height="14" fill="#4F87C3"/>
<rect x="121" y="483" width="8" height="14" fill="#4F87C3"/>
<rect x="132" y="483" width="8" height="14" fill="#4F87C3"/>
<rect x="143" y="483" width="8" height="14" fill="#4F87C3"/>
<rect x="154" y="483" width="8" height="14" fill="#4F87C3"/>
<rect x="165" y="483" width="8" height="14" fill="#4F87C3"/>
<rect x="99" y="466" width="8" height="14" fill="#4F87C3"/>
<rect x="110" y="466" width="8" height="14" fill="#4F87C3"/>
<rect x="121" y="466" width="8" height="14" fill="#4F87C3"/>
<rect x="132" y="466" width="8" height="14" fill="#4F87C3"/>
<rect x="143" y="466" width="8" height="14" fill="#4F87C3"/>
<rect x="154" y="466" width="8" height="14" fill="#4F87C3"/>
<rect x="165" y="466" width="8" height="14" fill="#4F87C3"/>
<rect x="99" y="449" width="8" height="14" fill="#4F87C3"/>
<rect x="110" y="449" width="8" height="14" fill="#4F87C3"/>
<rect x="121" y="449" width="8" height="14" fill="#4F87C3"/>
<rect x="132" y="449" width="8" height="14" fill="#4F87C3"/>
<rect x="143" y="449" width="8" height="14" fill="#4F87C3"/>
<rect x="154" y="449" width="8" height="14" fill="#4F87C3"/>
<rect x="165" y="449" width="8" height="14" fill="#4F87C3"/>
<rect x="99" y="432" width="8" height="14" fill="#4F87C3"/>
<rect x="110" y="432" width="8" height="14" fill="#4F87C3"/>
<rect x="121" y="432" width="8" height="14" fill="#4F87C3"/>
<rect x="132" y="432" width="8" height="14" fill="#4F87C3"/>
<rect x="143" y="432" width="8" height="14" fill="#4F87C3"/>
<rect x="154" y="432" width="8" height="14" fill="#4F87C3"/>
<rect x="165" y="432" width="8" height="14" fill="#4F87C3"/>
<rect x="99" y="415" width="8" height="14" fill="#4F87C3"/>
<rect x="110" y="415" width="8" height="14" fill="#4F87C3"/>
<rect x="121" y="415" width="8" height="14" fill="#4F87C3"/>
<rect x="132" y="415" width="8" height="14" fill="#4F87C3"/>
<rect x="143" y="415" width="8" height="14" fill="#4F87C3"/>
<rect x="154" y="415" width="8" height="14" fill="#4F87C3"/>
<rect x="165" y="415" width="8" height="14" fill="#4F87C3"/>
<rect x="99" y="398" width="8" height="14" fill="#4F87C3"/>
<rect x="110" y="398" width="8" height="14" fill="#4F87C3"/>
<rect x="121" y="398" width="8" height="14" fill="#4F87C3"/>
<rect x="132" y="398" width="8" height="14" fill="#4F87C3"/>
<rect x="143" y="398" width="8" height="14" fill="#4F87C3"/>
<rect x="154" y="398" width="8" height="14" fill="#4F87C3"/>
<rect x="165" y="398" width="8" height="14" fill="#4F87C3"/>
<rect x="99" y="381" width="8" height="14" fill="#4F87C3"/>
<rect x="110" y="381" width="8" height="14" fill="#4F87C3"/>
<rect x="121" y="381" width="8" height="14" fill="#4F87C3"/>
<rect x="132" y="381" width="8" height="14" fill="#4F87C3"/>
<rect x="143" y="381" width="8" height="14" fill="#4F87C3"/>
<rect x="154" y="381" width="8" height="14" fill="#4F87C3"/>
<rect x="165" y="381" width="8" height="14" fill="#4F87C3"/>
<rect x="99" y="364" width="8" height="14" fill="#4F87C3"/>
<rect x="110" y="364" width="8" height="14" fill="#4F87C3"/>
<rect x="121" y="364" width="8" height="14" fill="#4F87C3"/>
<rect x="132" y="364" width="8" height="14" fill="#4F87C3"/>
<rect x="143" y="364" width="8" height="14" fill="#4F87C3"/>
<rect x="154" y="364" width="8" height="14" fill="#4F87C3"/>
<rect x="165" y="364" width="8" height="14" fill="#4F87C3"/>
<rect x="99" y="347" width="8" height="14" fill="#4F87C3"/>
<rect x="110" y="347" width="8" height="14" fill="#4F87C3"/>
<rect x="121" y="347" width="8" height="14" fill="#4F87C3"/>
<rect x="132" y="347" width="8" height="14" fill="#4F87C3"/>
<rect x="143" y="347" width="8" height="14" fill="#4F87C3"/>
<rect x="154" y="347" width="8" height="14" fill="#4F87C3"/>
<rect x="165" y="347" width="8" height="14" fill="#4F87C3"/>
<rect x="99" y="330" width="8" height="14" fill="#4F87C3"/>
<rect x="110" y="330" width="8" height="14" fill="#4F87C3"/>
<rect x="121" y="330" width="8" height="14" fill="#4F87C3"/>
<rect x="132" y="330" width="8" height="14" fill="#4F87C3"/>
<rect x="143" y="330" width="8" height="14" fill="#4F87C3"/>
<rect x="154" y="330" width="8" height="14" fill="#4F87C3"/>
<rect x="165" y="330" width="8" height="14" fill="#4F87C3"/>
<rect x="99" y="313" width="8" height="14" fill="#4F87C3"/>
<rect x="110" y="313" width="8" height="14" fill="#4F87C3"/>
<rect x="121" y="313" width="8" height="14" fill="#4F87C3"/>
<rect x="132" y="313" width="8" height="14" fill="#4F87C3"/>
<rect x="143" y="313" width="8" height="14" fill="#4F87C3"/>
<rect x="154" y="313" width="8" height="14" fill="#4F87C3"/>
<rect x="165" y="313" width="8" height="14" fill="#4F87C3"/>
<rect x="99" y="619" width="8" height="14" fill="#4F87C3"/>
<rect x="110" y="619" width="8" height="14" fill="#4F87C3"/>
<rect x="121" y="619" width="8" height="14" fill="#4F87C3"/>
<rect x="132" y="619" width="8" height="14" fill="#4F87C3"/>
<rect x="143" y="619" width="8" height="14" fill="#4F87C3"/>
<rect x="154" y="619" width="8" height="14" fill="#4F87C3"/>
<rect x="165" y="619" width="8" height="14" fill="#4F87C3"/>
<rect x="99" y="602" width="8" height="14" fill="#4F87C3"/>
<rect x="110" y="602" width="8" height="14" fill="#4F87C3"/>
<rect x="121" y="602" width="8" height="14" fill="#4F87C3"/>
<rect x="132" y="602" width="8" height="14" fill="#4F87C3"/>
<rect x="143" y="602" width="8" height="14" fill="#4F87C3"/>
<rect x="154" y="602" width="8" height="14" fill="#4F87C3"/>
<rect x="165" y="602" width="8" height="14" fill="#4F87C3"/>
<rect x="99" y="585" width="8" height="14" fill="#4F87C3"/>
<rect x="110" y="585" width="8" height="14" fill="#4F87C3"/>
<rect x="121" y="585" width="8" height="14" fill="#4F87C3"/>
<rect x="132" y="585" width="8" height="14" fill="#4F87C3"/>
<rect x="143" y="585" width="8" height="14" fill="#4F87C3"/>
<rect x="154" y="585" width="8" height="14" fill="#4F87C3"/>
<rect x="165" y="585" width="8" height="14" fill="#4F87C3"/>
<rect x="99" y="568" width="8" height="14" fill="#4F87C3"/>
<rect x="110" y="568" width="8" height="14" fill="#4F87C3"/>
<rect x="121" y="568" width="8" height="14" fill="#4F87C3"/>
<rect x="132" y="568" width="8" height="14" fill="#4F87C3"/>
<rect x="143" y="568" width="8" height="14" fill="#4F87C3"/>
<rect x="154" y="568" width="8" height="14" fill="#4F87C3"/>
<rect x="165" y="568" width="8" height="14" fill="#4F87C3"/>
<rect x="99" y="551" width="8" height="14" fill="#4F87C3"/>
<rect x="110" y="551" width="8" height="14" fill="#4F87C3"/>
<rect x="121" y="551" width="8" height="14" fill="#4F87C3"/>
<rect x="132" y="551" width="8" height="14" fill="#4F87C3"/>
<rect x="143" y="551" width="8" height="14" fill="#4F87C3"/>
<rect x="154" y="551" width="8" height="14" fill="#4F87C3"/>
<rect x="165" y="551" width="8" height="14" fill="#4F87C3"/>
<rect x="99" y="534" width="8" height="14" fill="#4F87C3"/>
<rect x="110" y="534" width="8" height="14" fill="#4F87C3"/>
<rect x="121" y="534" width="8" height="14" fill="#4F87C3"/>
<rect x="132" y="534" width="8" height="14" fill="#4F87C3"/>
<rect x="143" y="534" width="8" height="14" fill="#4F87C3"/>
<rect x="154" y="534" width="8" height="14" fill="#4F87C3"/>
<rect x="165" y="534" width="8" height="14" fill="#4F87C3"/>
<rect x="99" y="636" width="8" height="14" fill="#4F87C3"/>
<rect x="110" y="636" width="8" height="14" fill="#4F87C3"/>
<rect x="121" y="636" width="8" height="14" fill="#4F87C3"/>
<rect x="132" y="636" width="8" height="14" fill="#4F87C3"/>
<rect x="143" y="636" width="8" height="14" fill="#4F87C3"/>
<rect x="154" y="636" width="8" height="14" fill="#4F87C3"/>
<rect x="165" y="636" width="8" height="14" fill="#4F87C3"/>
<rect x="99" y="653" width="8" height="12" fill="#4F87C3"/>
<rect x="110" y="653" width="8" height="12" fill="#4F87C3"/>
<rect x="121" y="653" width="8" height="12" fill="#4F87C3"/>
<rect x="132" y="653" width="8" height="12" fill="#4F87C3"/>
<rect x="143" y="653" width="8" height="12" fill="#4F87C3"/>
<rect x="154" y="653" width="8" height="12" fill="#4F87C3"/>
<rect x="165" y="653" width="8" height="12" fill="#4F87C3"/>
<path d="M177 665H96L177 310V665Z" fill="#5994D1" fill-opacity="0.5"/>
<path d="M695 668H614V312H622V303H642V312H695V668Z" fill="#B0D6FF"/>
<rect x="617" y="520" width="8" height="14" fill="#4F87C3"/>
<rect x="628" y="520" width="8" height="14" fill="#4F87C3"/>
<rect x="639" y="520" width="8" height="14" fill="#4F87C3"/>
<rect x="650" y="520" width="8" height="14" fill="#4F87C3"/>
<rect x="661" y="520" width="8" height="14" fill="#4F87C3"/>
<rect x="672" y="520" width="8" height="14" fill="#4F87C3"/>
<rect x="683" y="520" width="8" height="14" fill="#4F87C3"/>
<rect x="617" y="503" width="8" height="14" fill="#4F87C3"/>
<rect x="628" y="503" width="8" height="14" fill="#4F87C3"/>
<rect x="639" y="503" width="8" height="14" fill="#4F87C3"/>
<rect x="650" y="503" width="8" height="14" fill="#4F87C3"/>
<rect x="661" y="503" width="8" height="14" fill="#4F87C3"/>
<rect x="672" y="503" width="8" height="14" fill="#4F87C3"/>
<rect x="683" y="503" width="8" height="14" fill="#4F87C3"/>
<rect x="617" y="486" width="8" height="14" fill="#4F87C3"/>
<rect x="628" y="486" width="8" height="14" fill="#4F87C3"/>
<rect x="639" y="486" width="8" height="14" fill="#4F87C3"/>
<rect x="650" y="486" width="8" height="14" fill="#4F87C3"/>
<rect x="661" y="486" width="8" height="14" fill="#4F87C3"/>
<rect x="672" y="486" width="8" height="14" fill="#4F87C3"/>
<rect x="683" y="486" width="8" height="14" fill="#4F87C3"/>
<rect x="617" y="469" width="8" height="14" fill="#4F87C3"/>
<rect x="628" y="469" width="8" height="14" fill="#4F87C3"/>
<rect x="639" y="469" width="8" height="14" fill="#4F87C3"/>
<rect x="650" y="469" width="8" height="14" fill="#4F87C3"/>
<rect x="661" y="469" width="8" height="14" fill="#4F87C3"/>
<rect x="672" y="469" width="8" height="14" fill="#4F87C3"/>
<rect x="683" y="469" width="8" height="14" fill="#4F87C3"/>
<rect x="617" y="452" width="8" height="14" fill="#4F87C3"/>
<rect x="628" y="452" width="8" height="14" fill="#4F87C3"/>
<rect x="639" y="452" width="8" height="14" fill="#4F87C3"/>
<rect x="650" y="452" width="8" height="14" fill="#4F87C3"/>
<rect x="661" y="452" width="8" height="14" fill="#4F87C3"/>
<rect x="672" y="452" width="8" height="14" fill="#4F87C3"/>
<rect x="683" y="452" width="8" height="14" fill="#4F87C3"/>
<rect x="617" y="435" width="8" height="14" fill="#4F87C3"/>
<rect x="628" y="435" width="8" height="14" fill="#4F87C3"/>
<rect x="639" y="435" width="8" height="14" fill="#4F87C3"/>
<rect x="650" y="435" width="8" height="14" fill="#4F87C3"/>
<rect x="661" y="435" width="8" height="14" fill="#4F87C3"/>
<rect x="672" y="435" width="8" height="14" fill="#4F87C3"/>
<rect x="683" y="435" width="8" height="14" fill="#4F87C3"/>
<rect x="617" y="418" width="8" height="14" fill="#4F87C3"/>
<rect x="628" y="418" width="8" height="14" fill="#4F87C3"/>
<rect x="639" y="418" width="8" height="14" fill="#4F87C3"/>
<rect x="650" y="418" width="8" height="14" fill="#4F87C3"/>
<rect x="661" y="418" width="8" height="14" fill="#4F87C3"/>
<rect x="672" y="418" width="8" height="14" fill="#4F87C3"/>
<rect x="683" y="418" width="8" height="14" fill="#4F87C3"/>
<rect x="617" y="401" width="8" height="14" fill="#4F87C3"/>
<rect x="628" y="401" width="8" height="14" fill="#4F87C3"/>
<rect x="639" y="401" width="8" height="14" fill="#4F87C3"/>
<rect x="650" y="401" width="8" height="14" fill="#4F87C3"/>
<rect x="661" y="401" width="8" height="14" fill="#4F87C3"/>
<rect x="672" y="401" width="8" height="14" fill="#4F87C3"/>
<rect x="683" y="401" width="8" height="14" fill="#4F87C3"/>
<rect x="617" y="384" width="8" height="14" fill="#4F87C3"/>
<rect x="628" y="384" width="8" height="14" fill="#4F87C3"/>
<rect x="639" y="384" width="8" height="14" fill="#4F87C3"/>
<rect x="650" y="384" width="8" height="14" fill="#4F87C3"/>
<rect x="661" y="384" width="8" height="14" fill="#4F87C3"/>
<rect x="672" y="384" width="8" height="14" fill="#4F87C3"/>
<rect x="683" y="384" width="8" height="14" fill="#4F87C3"/>
<rect x="617" y="367" width="8" height="14" fill="#4F87C3"/>
<rect x="628" y="367" width="8" height="14" fill="#4F87C3"/>
<rect x="639" y="367" width="8" height="14" fill="#4F87C3"/>
<rect x="650" y="367" width="8" height="14" fill="#4F87C3"/>
<rect x="661" y="367" width="8" height="14" fill="#4F87C3"/>
<rect x="672" y="367" width="8" height="14" fill="#4F87C3"/>
<rect x="683" y="367" width="8" height="14" fill="#4F87C3"/>
<rect x="617" y="350" width="8" height="14" fill="#4F87C3"/>
<rect x="628" y="350" width="8" height="14" fill="#4F87C3"/>
<rect x="639" y="350" width="8" height="14" fill="#4F87C3"/>
<rect x="650" y="350" width="8" height="14" fill="#4F87C3"/>
<rect x="661" y="350" width="8" height="14" fill="#4F87C3"/>
<rect x="672" y="350" width="8" height="14" fill="#4F87C3"/>
<rect x="683" y="350" width="8" height="14" fill="#4F87C3"/>
<rect x="617" y="333" width="8" height="14" fill="#4F87C3"/>
<rect x="628" y="333" width="8" height="14" fill="#4F87C3"/>
<rect x="639" y="333" width="8" height="14" fill="#4F87C3"/>
<rect x="650" y="333" width="8" height="14" fill="#4F87C3"/>
<rect x="661" y="333" width="8" height="14" fill="#4F87C3"/>
<rect x="672" y="333" width="8" height="14" fill="#4F87C3"/>
<rect x="683" y="333" width="8" height="14" fill="#4F87C3"/>
<rect x="617" y="316" width="8" height="14" fill="#4F87C3"/>
<rect x="628" y="316" width="8" height="14" fill="#4F87C3"/>
<rect x="639" y="316" width="8" height="14" fill="#4F87C3"/>
<rect x="650" y="316" width="8" height="14" fill="#4F87C3"/>
<rect x="661" y="316" width="8" height="14" fill="#4F87C3"/>
<rect x="672" y="316" width="8" height="14" fill="#4F87C3"/>
<rect x="683" y="316" width="8" height="14" fill="#4F87C3"/>
<rect x="617" y="622" width="8" height="14" fill="#4F87C3"/>
<rect x="628" y="622" width="8" height="14" fill="#4F87C3"/>
<rect x="639" y="622" width="8" height="14" fill="#4F87C3"/>
<rect x="650" y="622" width="8" height="14" fill="#4F87C3"/>
<rect x="661" y="622" width="8" height="14" fill="#4F87C3"/>
<rect x="672" y="622" width="8" height="14" fill="#4F87C3"/>
<rect x="683" y="622" width="8" height="14" fill="#4F87C3"/>
<rect x="617" y="605" width="8" height="14" fill="#4F87C3"/>
<rect x="628" y="605" width="8" height="14" fill="#4F87C3"/>
<rect x="639" y="605" width="8" height="14" fill="#4F87C3"/>
<rect x="650" y="605" width="8" height="14" fill="#4F87C3"/>
<rect x="661" y="605" width="8" height="14" fill="#4F87C3"/>
<rect x="672" y="605" width="8" height="14" fill="#4F87C3"/>
<rect x="683" y="605" width="8" height="14" fill="#4F87C3"/>
<rect x="617" y="588" width="8" height="14" fill="#4F87C3"/>
<rect x="628" y="588" width="8" height="14" fill="#4F87C3"/>
<rect x="639" y="588" width="8" height="14" fill="#4F87C3"/>
<rect x="650" y="588" width="8" height="14" fill="#4F87C3"/>
<rect x="661" y="588" width="8" height="14" fill="#4F87C3"/>
<rect x="672" y="588" width="8" height="14" fill="#4F87C3"/>
<rect x="683" y="588" width="8" height="14" fill="#4F87C3"/>
<rect x="617" y="571" width="8" height="14" fill="#4F87C3"/>
<rect x="628" y="571" width="8" height="14" fill="#4F87C3"/>
<rect x="639" y="571" width="8" height="14" fill="#4F87C3"/>
<rect x="650" y="571" width="8" height="14" fill="#4F87C3"/>
<rect x="661" y="571" width="8" height="14" fill="#4F87C3"/>
<rect x="672" y="571" width="8" height="14" fill="#4F87C3"/>
<rect x="683" y="571" width="8" height="14" fill="#4F87C3"/>
<rect x="617" y="554" width="8" height="14" fill="#4F87C3"/>
<rect x="628" y="554" width="8" height="14" fill="#4F87C3"/>
<rect x="639" y="554" width="8" height="14" fill="#4F87C3"/>
<rect x="650" y="554" width="8" height="14" fill="#4F87C3"/>
<rect x="661" y="554" width="8" height="14" fill="#4F87C3"/>
<rect x="672" y="554" width="8" height="14" fill="#4F87C3"/>
<rect x="683" y="554" width="8" height="14" fill="#4F87C3"/>
<rect x="617" y="537" width="8" height="14" fill="#4F87C3"/>
<rect x="628" y="537" width="8" height="14" fill="#4F87C3"/>
<rect x="639" y="537" width="8" height="14" fill="#4F87C3"/>
<rect x="650" y="537" width="8" height="14" fill="#4F87C3"/>
<rect x="661" y="537" width="8" height="14" fill="#4F87C3"/>
<rect x="672" y="537" width="8" height="14" fill="#4F87C3"/>
<rect x="683" y="537" width="8" height="14" fill="#4F87C3"/>
<rect x="617" y="639" width="8" height="14" fill="#4F87C3"/>
<rect x="628" y="639" width="8" height="14" fill="#4F87C3"/>
<rect x="639" y="639" width="8" height="14" fill="#4F87C3"/>
<rect x="650" y="639" width="8" height="14" fill="#4F87C3"/>
<rect x="661" y="639" width="8" height="14" fill="#4F87C3"/>
<rect x="672" y="639" width="8" height="14" fill="#4F87C3"/>
<rect x="683" y="639" width="8" height="14" fill="#4F87C3"/>
<rect x="617" y="656" width="8" height="12" fill="#4F87C3"/>
<rect x="628" y="656" width="8" height="12" fill="#4F87C3"/>
<rect x="639" y="656" width="8" height="12" fill="#4F87C3"/>
<rect x="650" y="656" width="8" height="12" fill="#4F87C3"/>
<rect x="661" y="656" width="8" height="12" fill="#4F87C3"/>
<rect x="672" y="656" width="8" height="12" fill="#4F87C3"/>
<rect x="683" y="656" width="8" height="12" fill="#4F87C3"/>
<path d="M695 668H614L695 313V668Z" fill="#5994D1" fill-opacity="0.5"/>
<rect x="158" y="441" width="94" height="224" fill="#B0D6FF"/>
<rect x="161" y="445" width="16" height="12" fill="#4F87C3"/>
<rect x="179" y="445" width="16" height="12" fill="#4F87C3"/>
<rect x="197" y="445" width="16" height="12" fill="#4F87C3"/>
<rect x="215" y="445" width="16" height="12" fill="#4F87C3"/>
<rect x="233" y="445" width="16" height="12" fill="#4F87C3"/>
<rect x="161" y="459" width="16" height="12" fill="#4F87C3"/>
<rect x="179" y="459" width="16" height="12" fill="#4F87C3"/>
<rect x="197" y="459" width="16" height="12" fill="#4F87C3"/>
<rect x="215" y="459" width="16" height="12" fill="#4F87C3"/>
<rect x="233" y="459" width="16" height="12" fill="#4F87C3"/>
<rect x="161" y="473" width="16" height="12" fill="#4F87C3"/>
<rect x="179" y="473" width="16" height="12" fill="#4F87C3"/>
<rect x="197" y="473" width="16" height="12" fill="#4F87C3"/>
<rect x="215" y="473" width="16" height="12" fill="#4F87C3"/>
<rect x="233" y="473" width="16" height="12" fill="#4F87C3"/>
<rect x="161" y="487" width="16" height="12" fill="#4F87C3"/>
<rect x="179" y="487" width="16" height="12" fill="#4F87C3"/>
<rect x="197" y="487" width="16" height="12" fill="#4F87C3"/>
<rect x="215" y="487" width="16" height="12" fill="#4F87C3"/>
<rect x="233" y="487" width="16" height="12" fill="#4F87C3"/>
<rect x="161" y="501" width="16" height="12" fill="#4F87C3"/>
<rect x="179" y="501" width="16" height="12" fill="#4F87C3"/>
<rect x="197" y="501" width="16" height="12" fill="#4F87C3"/>
<rect x="215" y="501" width="16" height="12" fill="#4F87C3"/>
<rect x="233" y="501" width="16" height="12" fill="#4F87C3"/>
<rect x="161" y="515" width="16" height="12" fill="#4F87C3"/>
<rect x="179" y="515" width="16" height="12" fill="#4F87C3"/>
<rect x="197" y="515" width="16" height="12" fill="#4F87C3"/>
<rect x="215" y="515" width="16" height="12" fill="#4F87C3"/>
<rect x="233" y="515" width="16" height="12" fill="#4F87C3"/>
<rect x="161" y="529" width="16" height="12" fill="#4F87C3"/>
<rect x="179" y="529" width="16" height="12" fill="#4F87C3"/>
<rect x="197" y="529" width="16" height="12" fill="#4F87C3"/>
<rect x="215" y="529" width="16" height="12" fill="#4F87C3"/>
<rect x="233" y="529" width="16" height="12" fill="#4F87C3"/>
<rect x="161" y="543" width="16" height="12" fill="#4F87C3"/>
<rect x="179" y="543" width="16" height="12" fill="#4F87C3"/>
<rect x="197" y="543" width="16" height="12" fill="#4F87C3"/>
<rect x="215" y="543" width="16" height="12" fill="#4F87C3"/>
<rect x="233" y="543" width="16" height="12" fill="#4F87C3"/>
<rect x="161" y="557" width="16" height="12" fill="#4F87C3"/>
<rect x="179" y="557" width="16" height="12" fill="#4F87C3"/>
<rect x="197" y="557" width="16" height="12" fill="#4F87C3"/>
<rect x="215" y="557" width="16" height="12" fill="#4F87C3"/>
<rect x="233" y="557" width="16" height="12" fill="#4F87C3"/>
<rect x="161" y="571" width="16" height="12" fill="#4F87C3"/>
<rect x="179" y="571" width="16" height="12" fill="#4F87C3"/>
<rect x="197" y="571" width="16" height="12" fill="#4F87C3"/>
<rect x="215" y="571" width="16" height="12" fill="#4F87C3"/>
<rect x="233" y="571" width="16" height="12" fill="#4F87C3"/>
<rect x="161" y="585" width="16" height="12" fill="#4F87C3"/>
<rect x="179" y="585" width="16" height="12" fill="#4F87C3"/>
<rect x="197" y="585" width="16" height="12" fill="#4F87C3"/>
<rect x="215" y="585" width="16" height="12" fill="#4F87C3"/>
<rect x="233" y="585" width="16" height="12" fill="#4F87C3"/>
<rect x="161" y="599" width="16" height="12" fill="#4F87C3"/>
<rect x="179" y="599" width="16" height="12" fill="#4F87C3"/>
<rect x="197" y="599" width="16" height="12" fill="#4F87C3"/>
<rect x="215" y="599" width="16" height="12" fill="#4F87C3"/>
<rect x="233" y="599" width="16" height="12" fill="#4F87C3"/>
<rect x="161" y="613" width="16" height="12" fill="#4F87C3"/>
<rect x="179" y="613" width="16" height="12" fill="#4F87C3"/>
<rect x="197" y="613" width="16" height="12" fill="#4F87C3"/>
<rect x="215" y="613" width="16" height="12" fill="#4F87C3"/>
<rect x="233" y="613" width="16" height="12" fill="#4F87C3"/>
<rect x="161" y="627" width="16" height="12" fill="#4F87C3"/>
<rect x="179" y="627" width="16" height="12" fill="#4F87C3"/>
<rect x="197" y="627" width="16" height="12" fill="#4F87C3"/>
<rect x="215" y="627" width="16" height="12" fill="#4F87C3"/>
<rect x="233" y="627" width="16" height="12" fill="#4F87C3"/>
<rect x="161" y="641" width="16" height="12" fill="#4F87C3"/>
<rect x="179" y="641" width="16" height="12" fill="#4F87C3"/>
<rect x="197" y="641" width="16" height="12" fill="#4F87C3"/>
<rect x="215" y="641" width="16" height="12" fill="#4F87C3"/>
<rect x="233" y="641" width="16" height="12" fill="#4F87C3"/>
<rect x="161" y="655" width="16" height="10" fill="#4F87C3"/>
<rect x="179" y="655" width="16" height="10" fill="#4F87C3"/>
<rect x="197" y="655" width="16" height="10" fill="#4F87C3"/>
<rect x="215" y="655" width="16" height="10" fill="#4F87C3"/>
<rect x="233" y="655" width="16" height="10" fill="#4F87C3"/>
<rect x="169" y="432" width="20" height="9" fill="#B0D6FF"/>
<path d="M158 591.5L252 441V665H158V591.5Z" fill="#698CB1" fill-opacity="0.5"/>
<rect x="682" y="444" width="94" height="224" fill="#B0D6FF"/>
<rect x="685" y="448" width="16" height="12" fill="#4F87C3"/>
<rect x="703" y="448" width="16" height="12" fill="#4F87C3"/>
<rect x="721" y="448" width="16" height="12" fill="#4F87C3"/>
<rect x="685" y="462" width="16" height="12" fill="#4F87C3"/>
<rect x="703" y="462" width="16" height="12" fill="#4F87C3"/>
<rect x="721" y="462" width="16" height="12" fill="#4F87C3"/>
<rect x="685" y="476" width="16" height="12" fill="#4F87C3"/>
<rect x="703" y="476" width="16" height="12" fill="#4F87C3"/>
<rect x="721" y="476" width="16" height="12" fill="#4F87C3"/>
<rect x="685" y="490" width="16" height="12" fill="#4F87C3"/>
<rect x="703" y="490" width="16" height="12" fill="#4F87C3"/>
<rect x="721" y="490" width="16" height="12" fill="#4F87C3"/>
<rect x="685" y="504" width="16" height="12" fill="#4F87C3"/>
<rect x="703" y="504" width="16" height="12" fill="#4F87C3"/>
<rect x="721" y="504" width="16" height="12" fill="#4F87C3"/>
<rect x="685" y="518" width="16" height="12" fill="#4F87C3"/>
<rect x="703" y="518" width="16" height="12" fill="#4F87C3"/>
<rect x="721" y="518" width="16" height="12" fill="#4F87C3"/>
<rect x="685" y="532" width="16" height="12" fill="#4F87C3"/>
<rect x="703" y="532" width="16" height="12" fill="#4F87C3"/>
<rect x="721" y="532" width="16" height="12" fill="#4F87C3"/>
<rect x="685" y="546" width="16" height="12" fill="#4F87C3"/>
<rect x="703" y="546" width="16" height="12" fill="#4F87C3"/>
<rect x="721" y="546" width="16" height="12" fill="#4F87C3"/>
<rect x="685" y="560" width="16" height="12" fill="#4F87C3"/>
<rect x="703" y="560" width="16" height="12" fill="#4F87C3"/>
<rect x="721" y="560" width="16" height="12" fill="#4F87C3"/>
<rect x="685" y="574" width="16" height="12" fill="#4F87C3"/>
<rect x="703" y="574" width="16" height="12" fill="#4F87C3"/>
<rect x="721" y="574" width="16" height="12" fill="#4F87C3"/>
<rect x="685" y="588" width="16" height="12" fill="#4F87C3"/>
<rect x="703" y="588" width="16" height="12" fill="#4F87C3"/>
<rect x="721" y="588" width="16" height="12" fill="#4F87C3"/>
<rect x="685" y="602" width="16" height="12" fill="#4F87C3"/>
<rect x="703" y="602" width="16" height="12" fill="#4F87C3"/>
<rect x="721" y="602" width="16" height="12" fill="#4F87C3"/>
<rect x="685" y="616" width="16" height="12" fill="#4F87C3"/>
<rect x="703" y="616" width="16" height="12" fill="#4F87C3"/>
<rect x="721" y="616" width="16" height="12" fill="#4F87C3"/>
<rect x="685" y="630" width="16" height="12" fill="#4F87C3"/>
<rect x="703" y="630" width="16" height="12" fill="#4F87C3"/>
<rect x="721" y="630" width="16" height="12" fill="#4F87C3"/>
<rect x="685" y="644" width="16" height="12" fill="#4F87C3"/>
<rect x="703" y="644" width="16" height="12" fill="#4F87C3"/>
<rect x="721" y="644" width="16" height="12" fill="#4F87C3"/>
<rect x="685" y="658" width="16" height="10" fill="#4F87C3"/>
<rect x="703" y="658" width="16" height="10" fill="#4F87C3"/>
<rect x="721" y="658" width="16" height="10" fill="#4F87C3"/>
<rect x="693" y="435" width="20" height="9" fill="#B0D6FF"/>
<path d="M682 594.5L776 444V668H682V594.5Z" fill="#698CB1" fill-opacity="0.5"/>
<rect x="15" y="608" width="74" height="5" fill="#B0D6FF"/>
<rect y="618" width="107" height="47" fill="#B0D6FF"/>
<rect x="15" y="598" width="74" height="5" fill="#B0D6FF"/>
<rect x="15" y="588" width="74" height="5" fill="#B0D6FF"/>
<rect x="15" y="578" width="74" height="5" fill="#B0D6FF"/>
<rect x="15" y="568" width="74" height="5" fill="#B0D6FF"/>
<rect x="15" y="558" width="74" height="5" fill="#B0D6FF"/>
<rect x="15" y="548" width="74" height="5" fill="#B0D6FF"/>
<rect x="15" y="538" width="74" height="5" fill="#B0D6FF"/>
<rect x="15" y="528" width="74" height="5" fill="#B0D6FF"/>
<rect x="15" y="518" width="74" height="5" fill="#B0D6FF"/>
<rect x="15" y="508" width="74" height="5" fill="#B0D6FF"/>
<rect x="15" y="498" width="74" height="5" fill="#B0D6FF"/>
<rect x="15" y="488" width="74" height="5" fill="#B0D6FF"/>
<rect x="15" y="478" width="74" height="5" fill="#B0D6FF"/>
<rect x="15" y="468" width="74" height="5" fill="#B0D6FF"/>
<rect x="15" y="458" width="74" height="5" fill="#B0D6FF"/>
<rect x="15" y="448" width="74" height="5" fill="#B0D6FF"/>
<rect x="15" y="438" width="74" height="5" fill="#B0D6FF"/>
<rect x="15" y="428" width="74" height="5" fill="#B0D6FF"/>
<rect x="15" y="418" width="74" height="5" fill="#B0D6FF"/>
<rect x="15" y="408" width="74" height="5" fill="#B0D6FF"/>
<rect x="15" y="393" width="74" height="10" fill="#B0D6FF"/>
<rect x="20" y="383" width="34" height="10" fill="#B0D6FF"/>
<rect x="89" y="636" width="14" height="29" fill="#4F87C3"/>
<rect x="89" y="623" width="14" height="10" fill="#4F87C3"/>
<rect x="72" y="623" width="14" height="10" fill="#4F87C3"/>
<rect x="55" y="623" width="14" height="10" fill="#4F87C3"/>
<rect x="38" y="623" width="14" height="10" fill="#4F87C3"/>
<rect x="21" y="623" width="14" height="10" fill="#4F87C3"/>
<rect x="4" y="623" width="14" height="10" fill="#4F87C3"/>
<rect x="72" y="636" width="14" height="29" fill="#4F87C3"/>
<rect x="55" y="636" width="14" height="29" fill="#4F87C3"/>
<rect x="38" y="636" width="14" height="29" fill="#4F87C3"/>
<rect x="21" y="636" width="14" height="29" fill="#4F87C3"/>
<rect x="4" y="636" width="14" height="29" fill="#4F87C3"/>
<rect x="15" y="613" width="74" height="5" fill="#4F87C3"/>
<rect x="15" y="603" width="74" height="5" fill="#4F87C3"/>
<rect x="15" y="593" width="74" height="5" fill="#4F87C3"/>
<rect x="15" y="583" width="74" height="5" fill="#4F87C3"/>
<rect x="15" y="573" width="74" height="5" fill="#4F87C3"/>
<rect x="15" y="563" width="74" height="5" fill="#4F87C3"/>
<rect x="15" y="553" width="74" height="5" fill="#4F87C3"/>
<rect x="15" y="543" width="74" height="5" fill="#4F87C3"/>
<rect x="15" y="533" width="74" height="5" fill="#4F87C3"/>
<rect x="15" y="523" width="74" height="5" fill="#4F87C3"/>
<rect x="15" y="513" width="74" height="5" fill="#4F87C3"/>
<rect x="15" y="503" width="74" height="5" fill="#4F87C3"/>
<rect x="15" y="493" width="74" height="5" fill="#4F87C3"/>
<rect x="15" y="483" width="74" height="5" fill="#4F87C3"/>
<rect x="15" y="473" width="74" height="5" fill="#4F87C3"/>
<rect x="15" y="463" width="74" height="5" fill="#4F87C3"/>
<rect x="15" y="453" width="74" height="5" fill="#4F87C3"/>
<rect x="15" y="443" width="74" height="5" fill="#4F87C3"/>
<rect x="15" y="433" width="74" height="5" fill="#4F87C3"/>
<rect x="15" y="423" width="74" height="5" fill="#4F87C3"/>
<rect x="15" y="413" width="74" height="5" fill="#4F87C3"/>
<rect x="15" y="403" width="74" height="5" fill="#4F87C3"/>
<rect x="65" y="393" width="24" height="225" fill="#5994D1" fill-opacity="0.5"/>
<rect x="522" y="625" width="74" height="5" fill="#B0D6FF"/>
<rect x="507" y="635" width="107" height="47" fill="#B0D6FF"/>
<rect x="522" y="615" width="74" height="5" fill="#B0D6FF"/>
<rect x="522" y="605" width="74" height="5" fill="#B0D6FF"/>
<rect x="522" y="595" width="74" height="5" fill="#B0D6FF"/>
<rect x="522" y="585" width="74" height="5" fill="#B0D6FF"/>
<rect x="522" y="575" width="74" height="5" fill="#B0D6FF"/>
<rect x="522" y="565" width="74" height="5" fill="#B0D6FF"/>
<rect x="522" y="555" width="74" height="5" fill="#B0D6FF"/>
<rect x="522" y="545" width="74" height="5" fill="#B0D6FF"/>
<rect x="522" y="535" width="74" height="5" fill="#B0D6FF"/>
<rect x="522" y="525" width="74" height="5" fill="#B0D6FF"/>
<rect x="522" y="515" width="74" height="5" fill="#B0D6FF"/>
<rect x="522" y="505" width="74" height="5" fill="#B0D6FF"/>
<rect x="522" y="495" width="74" height="5" fill="#B0D6FF"/>
<rect x="522" y="485" width="74" height="5" fill="#B0D6FF"/>
<rect x="522" y="475" width="74" height="5" fill="#B0D6FF"/>
<rect x="522" y="465" width="74" height="5" fill="#B0D6FF"/>
<rect x="522" y="455" width="74" height="5" fill="#B0D6FF"/>
<rect x="522" y="445" width="74" height="5" fill="#B0D6FF"/>
<rect x="522" y="435" width="74" height="5" fill="#B0D6FF"/>
<rect x="522" y="425" width="74" height="5" fill="#B0D6FF"/>
<rect x="522" y="410" width="74" height="10" fill="#B0D6FF"/>
<rect x="527" y="400" width="34" height="10" fill="#B0D6FF"/>
<rect x="596" y="653" width="14" height="29" fill="#4F87C3"/>
<rect x="596" y="640" width="14" height="10" fill="#4F87C3"/>
<rect x="579" y="640" width="14" height="10" fill="#4F87C3"/>
<rect x="562" y="640" width="14" height="10" fill="#4F87C3"/>
<rect x="545" y="640" width="14" height="10" fill="#4F87C3"/>
<rect x="528" y="640" width="14" height="10" fill="#4F87C3"/>
<rect x="511" y="640" width="14" height="10" fill="#4F87C3"/>
<rect x="579" y="653" width="14" height="29" fill="#4F87C3"/>
<rect x="562" y="653" width="14" height="29" fill="#4F87C3"/>
<rect x="545" y="653" width="14" height="29" fill="#4F87C3"/>
<rect x="528" y="653" width="14" height="29" fill="#4F87C3"/>
<rect x="511" y="653" width="14" height="29" fill="#4F87C3"/>
<rect x="522" y="630" width="74" height="5" fill="#4F87C3"/>
<rect x="522" y="620" width="74" height="5" fill="#4F87C3"/>
<rect x="522" y="610" width="74" height="5" fill="#4F87C3"/>
<rect x="522" y="600" width="74" height="5" fill="#4F87C3"/>
<rect x="522" y="590" width="74" height="5" fill="#4F87C3"/>
<rect x="522" y="580" width="74" height="5" fill="#4F87C3"/>
<rect x="522" y="570" width="74" height="5" fill="#4F87C3"/>
<rect x="522" y="560" width="74" height="5" fill="#4F87C3"/>
<rect x="522" y="550" width="74" height="5" fill="#4F87C3"/>
<rect x="522" y="540" width="74" height="5" fill="#4F87C3"/>
<rect x="522" y="530" width="74" height="5" fill="#4F87C3"/>
<rect x="522" y="520" width="74" height="5" fill="#4F87C3"/>
<rect x="522" y="510" width="74" height="5" fill="#4F87C3"/>
<rect x="522" y="500" width="74" height="5" fill="#4F87C3"/>
<rect x="522" y="490" width="74" height="5" fill="#4F87C3"/>
<rect x="522" y="480" width="74" height="5" fill="#4F87C3"/>
<rect x="522" y="470" width="74" height="5" fill="#4F87C3"/>
<rect x="522" y="460" width="74" height="5" fill="#4F87C3"/>
<rect x="522" y="450" width="74" height="5" fill="#4F87C3"/>
<rect x="522" y="440" width="74" height="5" fill="#4F87C3"/>
<rect x="522" y="430" width="74" height="5" fill="#4F87C3"/>
<rect x="522" y="420" width="74" height="5" fill="#4F87C3"/>
<rect x="572" y="410" width="24" height="225" fill="#5994D1" fill-opacity="0.5"/>
<rect x="383" y="621.713" width="74" height="4.06028" fill="#B0D6FF"/>
<rect x="368" y="629.833" width="107" height="38.1667" fill="#B0D6FF"/>
<rect x="383" y="613.592" width="74" height="4.06028" fill="#B0D6FF"/>
<rect x="383" y="605.472" width="74" height="4.06028" fill="#B0D6FF"/>
<rect x="383" y="597.351" width="74" height="4.06028" fill="#B0D6FF"/>
<rect x="383" y="589.23" width="74" height="4.06028" fill="#B0D6FF"/>
<rect x="383" y="581.11" width="74" height="4.06028" fill="#B0D6FF"/>
<rect x="383" y="572.989" width="74" height="4.06028" fill="#B0D6FF"/>
<rect x="383" y="564.869" width="74" height="4.06028" fill="#B0D6FF"/>
<rect x="383" y="556.748" width="74" height="4.06028" fill="#B0D6FF"/>
<rect x="383" y="548.627" width="74" height="4.06028" fill="#B0D6FF"/>
<rect x="383" y="540.507" width="74" height="4.06028" fill="#B0D6FF"/>
<rect x="383" y="532.387" width="74" height="4.06028" fill="#B0D6FF"/>
<rect x="383" y="524.266" width="74" height="4.06028" fill="#B0D6FF"/>
<rect x="383" y="516.146" width="74" height="4.06028" fill="#B0D6FF"/>
<rect x="383" y="508.025" width="74" height="4.06028" fill="#B0D6FF"/>
<rect x="383" y="499.904" width="74" height="4.06028" fill="#B0D6FF"/>
<rect x="383" y="491.784" width="74" height="4.06028" fill="#B0D6FF"/>
<rect x="383" y="483.663" width="74" height="4.06028" fill="#B0D6FF"/>
<rect x="383" y="475.542" width="74" height="4.06028" fill="#B0D6FF"/>
<rect x="383" y="467.422" width="74" height="4.06028" fill="#B0D6FF"/>
<rect x="383" y="459.301" width="74" height="4.06028" fill="#B0D6FF"/>
<rect x="383" y="447.121" width="74" height="8.12057" fill="#B0D6FF"/>
<rect x="388" y="439" width="34" height="8.12057" fill="#B0D6FF"/>
<rect x="457" y="644.45" width="14" height="23.5496" fill="#4F87C3"/>
<rect x="457" y="633.894" width="14" height="8.12057" fill="#4F87C3"/>
<rect x="440" y="633.894" width="14" height="8.12057" fill="#4F87C3"/>
<rect x="423" y="633.894" width="14" height="8.12057" fill="#4F87C3"/>
<rect x="406" y="633.894" width="14" height="8.12057" fill="#4F87C3"/>
<rect x="389" y="633.894" width="14" height="8.12057" fill="#4F87C3"/>
<rect x="372" y="633.894" width="14" height="8.12057" fill="#4F87C3"/>
<rect x="440" y="644.45" width="14" height="23.5496" fill="#4F87C3"/>
<rect x="423" y="644.45" width="14" height="23.5496" fill="#4F87C3"/>
<rect x="406" y="644.45" width="14" height="23.5496" fill="#4F87C3"/>
<rect x="389" y="644.45" width="14" height="23.5496" fill="#4F87C3"/>
<rect x="372" y="644.45" width="14" height="23.5496" fill="#4F87C3"/>
<rect x="383" y="625.773" width="74" height="4.06028" fill="#4F87C3"/>
<rect x="383" y="617.652" width="74" height="4.06028" fill="#4F87C3"/>
<rect x="383" y="609.532" width="74" height="4.06028" fill="#4F87C3"/>
<rect x="383" y="601.411" width="74" height="4.06028" fill="#4F87C3"/>
<rect x="383" y="593.291" width="74" height="4.06028" fill="#4F87C3"/>
<rect x="383" y="585.17" width="74" height="4.06028" fill="#4F87C3"/>
<rect x="383" y="577.05" width="74" height="4.06028" fill="#4F87C3"/>
<rect x="383" y="568.929" width="74" height="4.06028" fill="#4F87C3"/>
<rect x="383" y="560.809" width="74" height="4.06028" fill="#4F87C3"/>
<rect x="383" y="552.688" width="74" height="4.06028" fill="#4F87C3"/>
<rect x="383" y="544.567" width="74" height="4.06028" fill="#4F87C3"/>
<rect x="383" y="536.447" width="74" height="4.06028" fill="#4F87C3"/>
<rect x="383" y="528.326" width="74" height="4.06028" fill="#4F87C3"/>
<rect x="383" y="520.206" width="74" height="4.06028" fill="#4F87C3"/>
<rect x="383" y="512.085" width="74" height="4.06028" fill="#4F87C3"/>
<rect x="383" y="503.964" width="74" height="4.06028" fill="#4F87C3"/>
<rect x="383" y="495.844" width="74" height="4.06028" fill="#4F87C3"/>
<rect x="383" y="487.724" width="74" height="4.06028" fill="#4F87C3"/>
<rect x="383" y="479.603" width="74" height="4.06028" fill="#4F87C3"/>
<rect x="383" y="471.482" width="74" height="4.06028" fill="#4F87C3"/>
<rect x="383" y="463.362" width="74" height="4.06028" fill="#4F87C3"/>
<rect x="383" y="455.241" width="74" height="4.06028" fill="#4F87C3"/>
<rect x="433" y="447.121" width="24" height="182.713" fill="#5994D1" fill-opacity="0.5"/>
<rect x="265" y="368" width="106" height="300" fill="#4F87C3"/>
<rect x="270" y="568" width="22" height="97" fill="#B0D6FF"/>
<rect x="270" y="467" width="22" height="97" fill="#B0D6FF"/>
<rect x="270" y="371" width="22" height="92" fill="#B0D6FF"/>
<rect x="295" y="568" width="22" height="97" fill="#B0D6FF"/>
<rect x="295" y="467" width="22" height="97" fill="#B0D6FF"/>
<rect x="295" y="371" width="22" height="92" fill="#B0D6FF"/>
<rect x="320" y="568" width="22" height="97" fill="#B0D6FF"/>
<rect x="320" y="467" width="22" height="97" fill="#B0D6FF"/>
<rect x="320" y="371" width="22" height="92" fill="#B0D6FF"/>
<rect x="345" y="568" width="22" height="97" fill="#B0D6FF"/>
<rect x="345" y="467" width="22" height="97" fill="#B0D6FF"/>
<rect x="345" y="371" width="22" height="92" fill="#B0D6FF"/>
<path d="M266 564.5L371 370V668H266V564.5Z" fill="#698CB1" fill-opacity="0.5"/>
<rect x="192" y="620.5" width="74" height="5" fill="#B0D6FF"/>
<rect x="177" y="630.5" width="107" height="47" fill="#B0D6FF"/>
<rect x="192" y="610.5" width="74" height="5" fill="#B0D6FF"/>
<rect x="192" y="600.5" width="74" height="5" fill="#B0D6FF"/>
<rect x="192" y="590.5" width="74" height="5" fill="#B0D6FF"/>
<rect x="192" y="580.5" width="74" height="5" fill="#B0D6FF"/>
<rect x="192" y="570.5" width="74" height="5" fill="#B0D6FF"/>
<rect x="192" y="560.5" width="74" height="5" fill="#B0D6FF"/>
<rect x="192" y="550.5" width="74" height="5" fill="#B0D6FF"/>
<rect x="192" y="540.5" width="74" height="5" fill="#B0D6FF"/>
<rect x="192" y="530.5" width="74" height="5" fill="#B0D6FF"/>
<rect x="192" y="520.5" width="74" height="5" fill="#B0D6FF"/>
<rect x="192" y="510.5" width="74" height="5" fill="#B0D6FF"/>
<rect x="192" y="500.5" width="74" height="5" fill="#B0D6FF"/>
<rect x="192" y="490.5" width="74" height="5" fill="#B0D6FF"/>
<rect x="192" y="480.5" width="74" height="5" fill="#B0D6FF"/>
<rect x="192" y="470.5" width="74" height="5" fill="#B0D6FF"/>
<rect x="192" y="460.5" width="74" height="5" fill="#B0D6FF"/>
<rect x="192" y="450.5" width="74" height="5" fill="#B0D6FF"/>
<rect x="192" y="440.5" width="74" height="5" fill="#B0D6FF"/>
<rect x="192" y="430.5" width="74" height="5" fill="#B0D6FF"/>
<rect x="192" y="420.5" width="74" height="5" fill="#B0D6FF"/>
<rect x="192" y="405.5" width="74" height="10" fill="#B0D6FF"/>
<path d="M249 305L247.5 405.5H192.5L249 305Z" fill="#B0D6FF"/>
<rect x="266" y="648.5" width="14" height="29" fill="#4F87C3"/>
<rect x="266" y="635.5" width="14" height="10" fill="#4F87C3"/>
<rect x="249" y="635.5" width="14" height="10" fill="#4F87C3"/>
<rect x="232" y="635.5" width="14" height="10" fill="#4F87C3"/>
<rect x="215" y="635.5" width="14" height="10" fill="#4F87C3"/>
<rect x="198" y="635.5" width="14" height="10" fill="#4F87C3"/>
<rect x="181" y="635.5" width="14" height="10" fill="#4F87C3"/>
<rect x="249" y="648.5" width="14" height="29" fill="#4F87C3"/>
<rect x="232" y="648.5" width="14" height="29" fill="#4F87C3"/>
<rect x="215" y="648.5" width="14" height="29" fill="#4F87C3"/>
<rect x="198" y="648.5" width="14" height="29" fill="#4F87C3"/>
<rect x="181" y="648.5" width="14" height="29" fill="#4F87C3"/>
<rect x="192" y="625.5" width="74" height="5" fill="#4F87C3"/>
<rect x="192" y="615.5" width="74" height="5" fill="#4F87C3"/>
<rect x="192" y="605.5" width="74" height="5" fill="#4F87C3"/>
<rect x="192" y="595.5" width="74" height="5" fill="#4F87C3"/>
<rect x="192" y="585.5" width="74" height="5" fill="#4F87C3"/>
<rect x="192" y="575.5" width="74" height="5" fill="#4F87C3"/>
<rect x="192" y="565.5" width="74" height="5" fill="#4F87C3"/>
<rect x="192" y="555.5" width="74" height="5" fill="#4F87C3"/>
<rect x="192" y="545.5" width="74" height="5" fill="#4F87C3"/>
<rect x="192" y="535.5" width="74" height="5" fill="#4F87C3"/>
<rect x="192" y="525.5" width="74" height="5" fill="#4F87C3"/>
<rect x="192" y="515.5" width="74" height="5" fill="#4F87C3"/>
<rect x="192" y="505.5" width="74" height="5" fill="#4F87C3"/>
<rect x="192" y="495.5" width="74" height="5" fill="#4F87C3"/>
<rect x="192" y="485.5" width="74" height="5" fill="#4F87C3"/>
<rect x="192" y="475.5" width="74" height="5" fill="#4F87C3"/>
<rect x="192" y="465.5" width="74" height="5" fill="#4F87C3"/>
<rect x="192" y="455.5" width="74" height="5" fill="#4F87C3"/>
<rect x="192" y="445.5" width="74" height="5" fill="#4F87C3"/>
<rect x="192" y="435.5" width="74" height="5" fill="#4F87C3"/>
<rect x="192" y="425.5" width="74" height="5" fill="#4F87C3"/>
<rect x="192" y="415.5" width="74" height="5" fill="#4F87C3"/>
<rect x="242" y="405.5" width="24" height="225" fill="#5994D1" fill-opacity="0.5"/>
<rect x="439" y="301" width="85" height="71" fill="#B0D6FF"/>
<rect x="422" y="372" width="118" height="293" fill="#B0D6FF"/>
<rect x="468" y="372" width="4" height="293" fill="#4F87C3"/>
<rect x="461" y="382" width="2" height="283" fill="#4F87C3"/>
<rect x="454" y="382" width="2" height="283" fill="#4F87C3"/>
<rect x="447" y="382" width="2" height="283" fill="#4F87C3"/>
<rect x="500" y="382" width="2" height="283" fill="#4F87C3"/>
<rect x="507" y="382" width="2" height="283" fill="#4F87C3"/>
<rect x="514" y="382" width="2" height="283" fill="#4F87C3"/>
<rect x="521" y="382" width="2" height="283" fill="#4F87C3"/>
<rect x="528" y="382" width="7" height="283" fill="#4F87C3"/>
<rect x="440" y="382" width="2" height="283" fill="#4F87C3"/>
<rect x="428" y="382" width="7" height="283" fill="#4F87C3"/>
<rect x="443" y="305" width="7" height="77" fill="#4F87C3"/>
<rect x="513" y="305" width="7" height="77" fill="#4F87C3"/>
<rect x="491" y="372" width="4" height="293" fill="#4F87C3"/>
<rect x="456" y="256" width="51" height="49" fill="#B0D6FF"/>
<rect x="456" y="253" width="51" height="3" fill="#4F87C3"/>
<rect x="479" y="172" width="4" height="81" fill="#4F87C3"/>
<rect x="456" y="255" width="7" height="127" fill="#4F87C3"/>
<rect x="500" y="256" width="7" height="127" fill="#4F87C3"/>
<rect x="476" y="256" width="4" height="409" fill="#4F87C3"/>
<rect x="484" y="256" width="4" height="409" fill="#4F87C3"/>
<path d="M422 665H539.5V372.5H524V301H507L422 475V665Z" fill="#698CB1" fill-opacity="0.5"/>
<rect x="439" y="301" width="85" height="71" fill="#B0D6FF"/>
<rect x="422" y="372" width="118" height="293" fill="#B0D6FF"/>
<rect x="468" y="372" width="4" height="293" fill="#4F87C3"/>
<rect x="461" y="382" width="2" height="283" fill="#4F87C3"/>
<rect x="454" y="382" width="2" height="283" fill="#4F87C3"/>
<rect x="447" y="382" width="2" height="283" fill="#4F87C3"/>
<rect x="500" y="382" width="2" height="283" fill="#4F87C3"/>
<rect x="507" y="382" width="2" height="283" fill="#4F87C3"/>
<rect x="514" y="382" width="2" height="283" fill="#4F87C3"/>
<rect x="521" y="382" width="2" height="283" fill="#4F87C3"/>
<rect x="528" y="382" width="7" height="283" fill="#4F87C3"/>
<rect x="440" y="382" width="2" height="283" fill="#4F87C3"/>
<rect x="428" y="382" width="7" height="283" fill="#4F87C3"/>
<rect x="443" y="305" width="7" height="77" fill="#4F87C3"/>
<rect x="513" y="305" width="7" height="77" fill="#4F87C3"/>
<rect x="491" y="372" width="4" height="293" fill="#4F87C3"/>
<rect x="456" y="256" width="51" height="49" fill="#B0D6FF"/>
<rect x="456" y="253" width="51" height="3" fill="#4F87C3"/>
<rect x="479" y="172" width="4" height="81" fill="#4F87C3"/>
<rect x="456" y="255" width="7" height="127" fill="#4F87C3"/>
<rect x="500" y="256" width="7" height="127" fill="#4F87C3"/>
<rect x="476" y="256" width="4" height="409" fill="#4F87C3"/>
<rect x="484" y="256" width="4" height="409" fill="#4F87C3"/>
<path d="M422 665H539.5V372.5H524V301H507L422 475V665Z" fill="#698CB1" fill-opacity="0.5"/>
<rect width="106" height="300" transform="matrix(0 1 1 0 371 562)" fill="#4F87C3"/>
<rect width="22" height="97" transform="matrix(0 1 1 0 571 567)" fill="#B0D6FF"/>
<rect width="22" height="97" transform="matrix(0 1 1 0 470 567)" fill="#B0D6FF"/>
<rect width="22" height="92" transform="matrix(0 1 1 0 374 567)" fill="#B0D6FF"/>
<rect width="22" height="97" transform="matrix(0 1 1 0 571 592)" fill="#B0D6FF"/>
<rect width="22" height="97" transform="matrix(0 1 1 0 470 592)" fill="#B0D6FF"/>
<rect width="22" height="92" transform="matrix(0 1 1 0 374 592)" fill="#B0D6FF"/>
<rect width="22" height="97" transform="matrix(0 1 1 0 571 617)" fill="#B0D6FF"/>
<rect width="22" height="97" transform="matrix(0 1 1 0 470 617)" fill="#B0D6FF"/>
<rect width="22" height="92" transform="matrix(0 1 1 0 374 617)" fill="#B0D6FF"/>
<rect width="22" height="97" transform="matrix(0 1 1 0 571 642)" fill="#B0D6FF"/>
<rect width="22" height="97" transform="matrix(0 1 1 0 470 642)" fill="#B0D6FF"/>
<rect width="22" height="92" transform="matrix(0 1 1 0 374 642)" fill="#B0D6FF"/>
<path d="M567.5 563L373 668L671 668V563L567.5 563Z" fill="#698CB1" fill-opacity="0.5"/>
</g>
<defs>
<clipPath id="clip0_205_2395">
<rect width="737" height="665" fill="white"/>
</clipPath>
</defs>
</svg>
