<svg width="663" height="619" viewBox="0 0 663 619" fill="none" xmlns="http://www.w3.org/2000/svg">
<g clip-path="url(#clip0_221_115)">
<path d="M421.447 597.815C450.32 597.815 473.727 574.408 473.727 545.535C473.727 516.661 450.32 493.255 421.447 493.255C392.574 493.255 369.167 516.661 369.167 545.535C369.167 574.408 392.574 597.815 421.447 597.815Z" fill="#B0D6FF"/>
<path d="M415.848 0.00395948C334.141 0.58096 267.24 66.9799 266.079 148.681C266.068 149.435 266.063 154.739 266.064 161.681C266.065 171.851 270.106 181.605 277.297 188.797C284.489 195.988 294.242 200.029 304.413 200.031C309.454 200.03 314.445 199.036 319.102 197.106C323.759 195.175 327.99 192.346 331.553 188.78C335.117 185.214 337.943 180.981 339.869 176.323C341.796 171.664 342.787 166.672 342.784 161.631C342.784 156.904 342.778 153.637 342.778 153.437C342.775 140.81 346.06 128.401 352.308 117.428C358.557 106.456 367.554 97.2995 378.414 90.859C389.275 84.4186 401.625 80.9162 414.249 80.6964C426.874 80.4766 439.339 83.547 450.417 89.6055C461.495 95.664 470.805 104.502 477.432 115.25C484.058 125.998 487.773 138.286 488.21 150.905C488.647 163.524 485.792 176.04 479.925 187.22C474.058 198.401 465.382 207.862 454.75 214.673L454.763 214.689C454.763 214.689 400.178 249.825 383.537 298.031H383.551C380.625 307.907 379.143 318.154 379.151 328.454C379.151 332.688 379.4 369.734 379.881 399.803C380.049 410.178 384.289 420.071 391.686 427.347C399.083 434.624 409.044 438.7 419.421 438.698C424.634 438.698 429.797 437.666 434.61 435.664C439.424 433.661 443.794 430.726 447.469 427.028C451.144 423.33 454.052 418.941 456.025 414.115C457.998 409.289 458.997 404.121 458.965 398.907C458.798 371.37 458.707 339.307 458.707 336.978C458.707 307.378 487.263 277.884 510.719 258.651C537.73 236.503 557.167 206.322 564.974 172.276C566.701 165.268 567.654 158.092 567.815 150.876C567.815 130.971 563.876 111.262 556.226 92.886C548.575 74.5098 537.364 57.8291 523.238 43.8049C509.112 29.7808 492.351 18.6905 473.92 11.1731C455.489 3.65572 435.752 -0.140243 415.848 0.00395948Z" fill="#B0D6FF"/>
<path d="M315.243 181.888C305.073 181.887 295.319 177.846 288.127 170.654C280.935 163.463 276.894 153.709 276.892 143.539C276.892 136.598 276.892 131.294 276.907 130.539C277.231 106.778 283.214 83.437 294.362 62.4517C276.046 87.527 265.974 117.675 265.541 148.725C265.53 149.479 265.525 154.783 265.526 161.725C265.527 171.896 269.567 181.65 276.759 188.842C283.951 196.035 293.705 200.076 303.875 200.078C312.234 200.074 320.362 197.343 327.026 192.299C333.69 187.254 338.526 180.173 340.798 172.13C333.776 178.424 324.674 181.9 315.243 181.888Z" fill="#1F4978"/>
<path d="M418.447 80.818C430.206 81.3796 441.653 84.7866 451.805 90.7466C461.957 96.7066 470.511 105.042 476.732 115.036C482.953 125.03 486.656 136.384 487.522 148.125C488.388 159.865 486.392 171.64 481.705 182.439C488.485 174.477 493.467 165.147 496.314 155.085C499.161 145.023 499.804 134.465 498.201 124.132C496.597 113.798 492.785 103.932 487.023 95.206C481.26 86.4797 473.684 79.0984 464.811 73.5654C455.938 68.0325 445.976 64.4779 435.604 63.144C425.232 61.8101 414.695 62.7283 404.71 65.8359C394.726 68.9436 385.529 74.1677 377.746 81.152C369.963 88.1363 363.778 96.7166 359.612 106.308C366.812 97.8379 375.862 91.1346 386.062 86.7151C396.263 82.2957 407.343 80.2781 418.447 80.818Z" fill="#1F4978"/>
<path d="M430.247 420.56C419.87 420.562 409.909 416.484 402.512 409.207C395.114 401.929 390.875 392.035 390.707 381.66C390.226 351.6 389.977 314.554 389.977 310.32C389.97 300.02 391.452 289.773 394.377 279.897H394.363C396.091 274.94 398.178 270.115 400.607 265.462C393.15 275.4 387.215 286.394 382.998 298.082H383.012C380.087 307.958 378.605 318.205 378.612 328.505C378.612 332.739 378.861 369.785 379.342 399.854C379.511 410.229 383.751 420.122 391.148 427.398C398.545 434.675 408.506 438.751 418.882 438.749C427.437 438.748 435.76 435.973 442.604 430.842C449.448 425.71 454.444 418.498 456.842 410.287C449.571 416.912 440.084 420.576 430.247 420.56Z" fill="#1F4978"/>
<path d="M409.929 585.064C402.502 581.829 395.929 576.913 390.728 570.703C385.527 564.492 381.84 557.158 379.959 549.279C378.078 541.4 378.053 533.192 379.888 525.302C381.722 517.412 385.365 510.056 390.529 503.815C384.542 508.187 379.553 513.782 375.894 520.229C372.234 526.676 369.988 533.827 369.303 541.209C368.619 548.591 369.512 556.033 371.924 563.043C374.336 570.053 378.211 576.47 383.293 581.868C388.374 587.266 394.546 591.521 401.397 594.351C408.249 597.182 415.624 598.523 423.034 598.285C430.443 598.047 437.717 596.236 444.373 592.972C451.029 589.709 456.915 585.066 461.64 579.354C454.271 584.74 445.619 588.102 436.546 589.104C427.473 590.106 418.296 588.713 409.929 585.065V585.064Z" fill="#1F4978"/>
<path d="M596.399 255.649L577.532 261.849V234.698H594.652L596.399 255.649Z" fill="#FFD4D6"/>
<path d="M579.869 242.216C590.252 242.216 598.668 233.799 598.668 223.417C598.668 213.034 590.252 204.618 579.869 204.618C569.487 204.618 561.07 213.034 561.07 223.417C561.07 233.799 569.487 242.216 579.869 242.216Z" fill="#FFD4D6"/>
<path d="M585.032 221.55C581.885 221.457 579.817 218.276 578.598 215.374C577.379 212.472 576.118 209.138 573.198 207.941C570.81 206.962 566.598 213.586 564.719 211.822C562.753 209.982 564.669 200.539 566.753 198.845C568.837 197.151 571.689 196.82 574.373 196.694C580.933 196.392 587.504 196.919 593.932 198.263C597.906 199.09 601.99 200.339 604.858 203.205C608.486 206.85 609.414 212.344 609.676 217.482C609.946 222.739 609.642 228.239 607.085 232.839C604.528 237.439 599.179 240.83 594.049 239.657C593.534 236.873 594.057 234.012 594.26 231.178C594.463 228.344 594.252 225.297 592.522 223.045C590.792 220.793 587.105 219.898 585.097 221.897" fill="#1F4978"/>
<path d="M608.161 228.066C610.043 226.691 612.296 225.535 614.607 225.821C615.855 226.023 617.017 226.584 617.951 227.437C618.885 228.29 619.549 229.396 619.864 230.621C620.149 231.852 620.15 233.132 619.868 234.364C619.586 235.597 619.028 236.749 618.236 237.734C616.625 239.696 614.423 241.086 611.958 241.696C610.561 242.163 609.047 242.151 607.658 241.662C606.682 241.202 605.911 240.398 605.492 239.405C605.073 238.411 605.036 237.298 605.388 236.279" fill="#1F4978"/>
<path d="M590.171 557.798H572.503V582.866H590.171V557.798Z" fill="#FFD4D6"/>
<path d="M555.291 598.036C553.434 598.036 551.781 597.994 550.535 597.876C545.844 597.446 541.364 593.976 539.111 591.953C538.618 591.51 538.275 590.924 538.13 590.276C537.985 589.629 538.045 588.953 538.301 588.341C538.485 587.9 538.766 587.506 539.124 587.189C539.482 586.871 539.907 586.639 540.368 586.509L552.768 582.966L572.846 569.417L573.074 569.816C574.167 571.761 575.077 573.803 575.791 575.917C575.923 576.285 575.975 576.678 575.941 577.068C575.908 577.459 575.79 577.837 575.597 578.177C575.366 578.52 575.042 578.789 574.664 578.953C575.027 579.332 576.164 580.11 579.676 580.667C584.797 581.477 585.876 576.166 585.924 575.949L585.958 575.772L586.11 575.672C588.549 574.103 590.051 573.386 590.565 573.538C590.886 573.631 591.426 573.8 592.885 588.253C593.593 590.503 593.755 592.889 593.358 595.214C592.607 598.674 577.487 597.484 574.458 597.214C574.374 597.222 563.051 598.033 555.297 598.033H555.289L555.291 598.036Z" fill="#1F4978"/>
<path d="M640.482 538.086L625.49 547.436L638.756 568.706L653.747 559.356L640.482 538.086Z" fill="#FFD4D6"/>
<path d="M620.562 594.602C618.771 594.59 616.985 594.426 615.222 594.112C614.57 593.995 613.97 593.679 613.505 593.207C613.039 592.736 612.731 592.132 612.622 591.479C612.544 591.007 612.575 590.523 612.71 590.064C612.846 589.606 613.084 589.184 613.406 588.83L622.062 579.262L631.934 557.139L632.334 557.358C634.292 558.428 636.145 559.68 637.869 561.096C638.177 561.338 638.429 561.645 638.606 561.995C638.783 562.344 638.882 562.729 638.895 563.121C638.884 563.535 638.752 563.936 638.516 564.277C639.022 564.412 640.398 564.464 643.671 563.077C648.446 561.06 646.556 555.977 646.471 555.77L646.404 555.601L646.48 555.441C647.72 552.817 648.606 551.416 649.129 551.273C649.458 551.18 649.998 551.037 658.883 562.537C660.675 564.069 662.075 566.007 662.966 568.19C664.156 571.523 650.698 578.518 647.989 579.885C647.905 579.952 633.822 590.185 628.033 593.098C625.687 594.167 623.127 594.684 620.549 594.609L620.562 594.602Z" fill="#1F4978"/>
<path d="M603.183 348.167H553.713L549.224 394.187L568.866 564.221H594.119L584.019 466.016L624.983 554.678L647.427 538.967L615.445 456.192C615.445 456.192 626.869 384.084 617.892 366.121C608.915 348.158 603.185 348.165 603.185 348.165L603.183 348.167Z" fill="#1F4978"/>
<path d="M627.788 350.967H549.225L572.79 249.396H607.023L627.788 350.967Z" fill="#1F4978"/>
<path d="M529.708 247.398C528.451 241.222 530.754 235.577 534.837 234.792C538.92 234.007 543.249 238.387 544.498 244.563C545.029 247.025 544.945 249.581 544.254 252.004L549.223 278.253L536.381 280.287L532.846 254.198C531.259 252.222 530.183 249.887 529.708 247.398Z" fill="#FFD4D6"/>
<path d="M606.185 249.396H576L555.649 290.096L547.971 259.596L531.105 261.385C531.105 261.385 535.096 320.979 552.536 318.963C569.976 316.947 610.654 263.263 606.182 249.387H606.19L606.185 249.396Z" fill="#1F4978"/>
<path d="M639.895 404.184C641.152 410.36 638.849 416.006 634.766 416.79C630.683 417.574 626.354 413.195 625.105 407.019C624.573 404.556 624.657 402 625.349 399.577L620.38 373.328L633.222 371.294L636.757 397.383C638.343 399.359 639.421 401.694 639.896 404.183L639.895 404.184Z" fill="#FFD4D6"/>
<path d="M588.974 249.397C588.974 249.397 606.128 248.672 607.022 249.397C611.705 253.22 639.17 391.182 639.17 391.182H621.77L588.974 249.397Z" fill="#1F4978"/>
<path d="M56.4854 315.214L74.3044 350.488L127.571 374.706C133.26 384.321 151.339 385.057 152.654 378.842C154.13 371.867 130.699 360.642 130.699 360.642L86.1404 330.503L82.2404 304.557L56.4854 315.214Z" fill="#FFD4D6"/>
<path d="M58.5878 551.921L55.3018 578.207L74.3598 579.522L76.3288 551.922L58.5878 551.921Z" fill="#FFD4D6"/>
<path d="M61.2154 574.265C59.5127 572.463 57.9419 570.541 56.5154 568.514C53.7874 564.734 51.3634 584.122 51.3634 584.122C51.3634 584.122 48.7344 592.008 49.3944 595.951C50.0544 599.894 65.1654 599.894 67.7944 599.239C70.4234 598.584 83.5654 599.239 83.5654 599.239H103.28C120.367 591.353 103.28 586.096 103.28 586.096C98.0224 585.439 80.2804 569.009 80.2804 569.009L76.3374 561.78C73.7094 561.123 71.0794 570.98 71.0794 570.98L61.2154 574.265Z" fill="#1F4978"/>
<path d="M9.29871 552.25L6.01074 578.535L25.0697 579.85L27.0387 552.25H9.29871Z" fill="#FFD4D6"/>
<path d="M11.929 574.595C10.2264 572.793 8.65572 570.871 7.22909 568.844C4.49809 565.064 2.07503 584.452 2.07503 584.452C2.07503 584.452 -0.552959 591.681 0.106041 595.624C0.765041 599.567 15.8771 599.563 18.5061 598.912C21.1351 598.261 34.2771 599.569 34.2771 599.569H53.9921C71.0791 591.683 53.9921 586.425 53.9921 586.425C48.7341 585.767 30.9921 569.338 30.9921 569.338L27.049 562.109C24.421 561.452 21.791 571.309 21.791 571.309L11.929 574.595Z" fill="#1F4978"/>
<path d="M30.9874 382.702C28.3584 385.99 29.6733 397.16 29.6733 397.16C29.6733 397.16 25.0733 433.304 27.0453 436.59C29.0173 439.876 25.7314 442.504 23.7574 447.105C21.7834 451.706 19.8134 462.876 19.8134 462.876C8.64135 472.076 9.29834 514.135 9.29834 514.135L5.35938 551.593C6.67338 555.536 25.0743 556.193 27.7043 555.536C30.3343 554.879 38.2194 495.736 38.2194 495.736L55.9623 462.22C55.9623 462.22 54.6484 551.594 54.6484 555.54C54.6484 559.486 72.3914 557.509 76.3344 557.509C80.2774 557.509 80.2773 491.792 80.2773 491.792L84.2204 474.707L105.25 396.507V387.307L101.962 382.707C101.962 382.707 33.6154 379.416 30.9874 382.702Z" fill="#1F4978"/>
<path d="M70.0884 222.682C65.9594 231.882 68.4035 244.724 76.6645 258.826L43.1484 243.056L48.4064 238.456L47.0955 225.315L70.0884 222.682Z" fill="#FFD4D6"/>
<path d="M59.9013 233.528C71.153 233.528 80.2743 224.406 80.2743 213.155C80.2743 201.903 71.153 192.782 59.9013 192.782C48.6496 192.782 39.5283 201.903 39.5283 213.155C39.5283 224.406 48.6496 233.528 59.9013 233.528Z" fill="#FFD4D6"/>
<path d="M70.088 243.711C74.477 246.32 77.1019 251.111 78.6089 255.993C81.3985 265.025 83.0775 274.362 83.6089 283.8L85.2 312.053L104.915 386.971C87.83 401.429 77.9749 398.143 54.9709 386.314C31.9669 374.485 29.341 390.26 29.341 390.26C29.341 390.26 27.372 389.603 29.341 387.632C31.31 385.661 29.3409 387.632 27.3719 385.663C25.4029 383.694 27.372 385.663 28.029 383.694C28.686 381.725 28.0289 383.036 27.3719 382.38C26.7149 381.724 30 375.804 30 375.804L24.745 326.514L18.1689 256.855C26.0549 246.997 48.397 238.455 48.397 238.455L68.7729 252.913C75.3489 255.541 70.087 245.027 70.087 245.027L70.088 243.711Z" fill="#7BB4F6"/>
<path d="M7.32916 298.585L4.70117 338.015L38.2202 385.988C38.2202 397.16 44.1342 399.788 44.1342 399.788C46.3742 396.213 48.3508 392.479 50.0482 388.616C53.3362 381.387 48.0792 375.473 48.0792 375.473L25.0792 326.844L34.9372 302.529L7.32916 298.585Z" fill="#FFD4D6"/>
<path d="M18.4946 257.184C7.32257 261.127 5.35156 303.844 5.35156 303.844C18.4946 296.615 34.2666 308.444 34.2666 308.444C34.2666 308.444 37.5546 297.272 41.4956 282.815C42.6862 278.748 42.8285 274.446 41.9092 270.309C40.9898 266.173 39.0388 262.336 36.2376 259.156C36.2376 259.156 29.6726 253.242 18.4946 257.184Z" fill="#7BB4F6"/>
<path d="M54.2642 213.501C56.5302 213.796 58.2392 211.478 59.0302 209.334C59.8212 207.19 60.4302 204.697 62.3962 203.539C65.0882 201.958 68.5302 203.86 71.6072 203.339C75.0822 202.75 77.3412 199.067 77.5202 195.547C77.6992 192.027 76.2962 188.647 74.9202 185.397L74.4402 189.43C74.5042 188.063 74.2165 186.703 73.6046 185.479C72.9927 184.255 72.077 183.208 70.9452 182.439L71.5612 188.357C71.4294 187.541 71.1379 186.759 70.7034 186.056C70.2689 185.353 69.7 184.743 69.0292 184.26C68.3584 183.777 67.5989 183.431 66.7943 183.243C65.9897 183.054 65.1557 183.026 64.3402 183.16L64.4402 186.686C60.4383 186.069 56.3832 185.871 52.3402 186.093C48.2756 186.329 44.3861 187.828 41.2152 190.382C36.6522 194.349 34.9852 200.878 35.5402 206.898C36.0952 212.918 38.5882 218.574 41.1792 224.039C41.8302 225.413 42.7322 226.964 44.2432 227.139C44.9284 227.148 45.5972 226.929 46.1443 226.517C46.6914 226.104 47.0857 225.521 47.2652 224.86C47.5903 223.526 47.5776 222.133 47.2282 220.805C46.6941 218.806 46.5247 216.728 46.7282 214.669C47.0862 212.636 48.5502 210.626 50.5992 210.378C52.6482 210.13 54.7462 212.472 53.7612 214.289L54.2642 213.501Z" fill="#1F4978"/>
<path d="M125.034 400.351L158.463 336.342C159.108 335.111 160.215 334.186 161.541 333.77C162.866 333.354 164.303 333.481 165.535 334.123L214.058 359.465C215.289 360.109 216.214 361.216 216.63 362.542C217.046 363.868 216.919 365.304 216.277 366.537L182.848 430.546C182.204 431.777 181.097 432.702 179.771 433.118C178.446 433.534 177.009 433.407 175.776 432.765L127.253 407.422C126.023 406.777 125.098 405.671 124.682 404.345C124.266 403.019 124.393 401.583 125.034 400.351Z" fill="#1F4978"/>
</g>
<defs>
<clipPath id="clip0_221_115">
<rect width="663" height="619" fill="white"/>
</clipPath>
</defs>
</svg>
